<svg xmlns="http://www.w3.org/2000/svg" viewBox="0 0 421.23 299.04">
  <defs>
    <style>
      .cls-1 {
        fill: #eec253;
      }
    </style>
  </defs>
  <g id="Layer_2" data-name="Layer 2">
    <g id="OBJECTS">
      <path class="cls-1" d="M377.64,15.22l-11,11L384.39,33Zm-1,4.85,3.19,8.37-8.37-3.19ZM375.61,5.76l-2.12-2.12-4.95,4.95,2.12,2.12ZM245.33,147.53l-11,11,17.76,6.75Zm-1,4.85,3.19,8.37-8.37-3.19Zm49.08-53-11,11,17.76,6.76Zm-1,4.86,3.18,8.36-8.37-3.18Zm-1-14.36,4.95-5-2.13-2.12-5,5ZM242,139.41l4.95-4.95-2.12-2.13-5,4.95Zm47-61.85,2.13,2.12,5-5-2.13-2.12Zm-49.49,49.5,2.12,2.12,4.95-5-2.12-2.12Zm17.89,8.44-11,11,17.75,6.76Zm-1,4.85,3.19,8.37-8.37-3.19Zm12.78-43,2.12,2.12,4.95-5-2.12-2.12Zm-9.9,9.9,2.12,2.12,4.95-4.95-2.12-2.12Zm-7.4,22.25,4.95-4.95-2.12-2.12-4.95,4.94Zm19.8-19.8,4.95-4.95-2.12-2.12-4.95,5ZM405.07,0h-2.82l1.66,4.36L395.55,1.2,396.72,0h-3.89l-2.14,2.14,17.76,6.76ZM261.77,119.61l5-5-2.12-2.12-5,4.95ZM389.66,3.19l-11,11L396.42,21ZM388.7,8l3.18,8.37-8.36-3.18ZM281.57,99.81l4.95-5-2.12-2.12-4.95,5Zm-2.5-12.35,2.12,2.12,4.95-5L284,82.51Zm-2.93,53.77-6.76-17.76-11,11Zm-4.54-4.54-8.36-3.18,5.18-5.19Zm9.81-25.25-11,11,17.76,6.76Zm-1,4.86,3.18,8.36-8.36-3.18Zm-31.08.86,2.12,2.12,4.95-5-2.12-2.12ZM140.47,226.05l2.12,2.12,4.95-4.95-2.12-2.12Zm71.8-57,4.95-4.95L215.1,162,210.15,167Zm-52,37.15,2.12,2.12,5-4.94-2.12-2.13Zm12.4,2.45,5-4.95-2.12-2.12-4.95,5Zm29.7-29.7,4.95-4.95-2.12-2.12-4.95,4.95ZM216,201.37l-6.76-17.76-11,11Zm-4.54-4.54-8.36-3.18,5.18-5.19Zm-41.29-.48,2.12,2.13,5-4.95-2.12-2.13Zm-7.4,22.25,4.95-4.95-2.12-2.12-4.95,4.95Zm10.39,1.09-11,11,17.76,6.76Zm-1,4.86,3.18,8.36L167,229.73Zm37.57-67.79,2.12,2.12,5-4.95-2.12-2.12Zm-27.2,42,5-5-2.12-2.12-5,5Zm2.62,8.87-11,11,17.75,6.75Zm-1,4.85,3.19,8.37L179,217.7Zm-4.15-26.07,2.12,2.13,4.95-5L185,181.5Zm17.15,9.19-11,11L204,213.4Zm-1,4.85,3.19,8.37-8.37-3.19Zm3.62-33.83,2.12,2.12,4.95-4.95-2.12-2.12Zm-7.4,22.24,4.95-5-2.12-2.12-5,4.95ZM190,176.55l2.12,2.13,4.95-5-2.12-2.12Zm-39.6,39.6,2.12,2.12,4.95-5-2.12-2.12Zm-13.29,39.63-11,11,17.75,6.76Zm-1,4.85L139.3,269l-8.37-3.19ZM130.57,236l2.12,2.12,4.95-4.95L135.52,231Zm102.73-76.4-11,11,17.76,6.76Zm-1,4.86,3.18,8.36-8.37-3.18Zm-.27-15.1,5-4.95-2.12-2.13-5,5ZM229.57,137l2.12,2.12,4.95-5L234.52,132ZM167.89,249.48l-6.76-17.76-11,11Zm-4.54-4.54L155,241.76l5.18-5.18Zm-37.73-4-5,4.95,2.12,2.12,4.95-4.95Zm7.45,7.4,5-5-2.12-2.12-5,5Zm86.6-101.44,2.12,2.12,5-4.95-2.12-2.12Zm1.6,24.72-11,11L228,189.34Zm-1,4.86,3.18,8.36-8.36-3.18Zm1.86-17.24,5-4.95L225,152.13l-4.95,5ZM143,238.4l4.95-5-2.12-2.12-5,4.95Zm9.9-9.9,4.95-4.95-2.12-2.12-4.95,4.95Zm3,33-6.76-17.76-11,11ZM151.32,257,143,253.79l5.18-5.19Zm-23.2-3.72L126,251.13l-5,4.95,2.12,2.12ZM318.66,47.86,320.78,50l5-4.95-2.12-2.12ZM134.24,287l11-11-17.75-6.75Zm1-4.85L132,273.79l8.37,3.19Zm-13,16.88,11-11-17.76-6.75Zm1-4.85L120,285.82l8.36,3.19Zm1.87-26.38-11,11,17.75,6.75Zm-1,4.85,3.19,8.37-8.37-3.19Zm-8-11.63-4.95,5,2.13,2.12,4.94-5Zm30.17,14,11-11-17.76-6.76Zm1-4.86-3.19-8.36,8.37,3.18Zm47.14-43.26,11-11-17.75-6.75Zm1-4.85-3.19-8.37,8.37,3.19ZM158.3,263l11-11-17.76-6.76Zm1-4.86-3.18-8.36,8.37,3.18Zm23.1-19.2,11-11-17.76-6.75Zm1-4.85-3.18-8.37,8.36,3.19Zm23.09-19.2,11-11-17.75-6.76Zm1-4.86-3.19-8.36,8.37,3.18Zm98.09-122.6-11,11,17.76,6.75Zm-1,4.85,3.19,8.37-8.37-3.19Zm-218.91,128V209.54H74.92v10.68Zm38.5-38.5V171H113.42v10.68ZM104.84,201V190.29H94.17V201Zm38.5-38.5V151.79H132.67v10.68ZM105,272.18l-1.57-1.58-2.13,2.12,3.7,3.7,3.38-3.37-2.13-2.12Zm11.15-60h19.25V193H154.6V173.73h19.25V154.48H193.1V135.23h19.25V116H231.6V96.73h19.25V77.48H270.1V58.23h19.25V39H308.6V19.73h19.25V.48H347.1V0H305.6V16.73H286.35V36H267.1V55.23H247.85V74.48H228.6V93.73H209.35V113H190.1v19.25H170.85v19.25H151.6v19.25H132.35V190H113.1v19.25H93.85v19.25H74.6v22.25H96.85V231.48H116.1ZM324.85.48V16.73H308.6V.48ZM305.6,19.73V36H289.35V19.73ZM286.35,39V55.23H270.1V39ZM267.1,58.23V74.48H250.85V58.23ZM247.85,77.48V93.73H231.6V77.48ZM228.6,96.73V113H212.35V96.73ZM209.35,116v16.25H193.1V116ZM190.1,135.23v16.25H173.85V135.23Zm-19.25,19.25v16.25H154.6V154.48ZM151.6,173.73V190H135.35V173.73ZM132.35,193v16.25H116.1V193Zm-38.5,54.75H77.6V231.48H93.85Zm19.25-19.25H96.85V212.23H113.1Zm4.75,24.44-2.13-2.12-5,4.95,2.13,2.12Zm-9.9,9.9-2.13-2.12-4.95,4.95,2.13,2.12Zm194.69-144.2,11-11-17.76-6.76Zm1-4.85-3.18-8.37,8.36,3.19Zm59.18-55.29,11-11L356,40.72Zm1-4.85-3.18-8.37,8.36,3.19Zm-13,16.88,11-11L344,52.75Zm1-4.85-3.18-8.37,8.36,3.18ZM218.44,202.82l11-11-17.76-6.76Zm1-4.86-3.18-8.36,8.37,3.18ZM374.8,46.45l11-11L368.05,28.7Zm1-4.85-3.19-8.37L381,36.42Zm11.06-7.17,11-11-17.75-6.76Zm1-4.86-3.19-8.36L393,24.39Zm-61.11,65,11-11-17.75-6.76Zm1-4.86-3.19-8.36,8.37,3.18ZM416.23,0l.8.3-5.18,5.19L409.76,0H407l3.94,10.34L421.23,0ZM398.86,22.4l11-11L392.1,4.64Zm1-4.86-3.18-8.36L405,12.36Zm-61.1,65,11-11L332,64.78Zm1-4.86-3.18-8.36,8.37,3.18ZM242.5,178.76l11-11L235.74,161Zm1-4.85-3.18-8.37,8.36,3.19Zm11.06-7.18,11-11L247.77,149Zm1-4.85-3.19-8.37,8.37,3.19Zm11.06-7.17,11-11L259.8,137Zm1-4.86-3.19-8.36,8.37,3.18Zm-37,40.94,11-11L223.71,173Zm1-4.85-3.18-8.37,8.36,3.18Zm47.15-43.26,11-11-17.76-6.76Zm1-4.86-3.18-8.36,8.37,3.18Zm35.12-31.23,11-11-17.75-6.75Zm1-4.85-3.19-8.37,8.37,3.19Zm-153,41.48V132.54H151.92v10.68Zm128-12.57,11-11-17.76-6.76Zm1-4.85-3.18-8.37,8.36,3.18ZM170.33,250.93l11-11-17.76-6.76Zm1-4.85-3.18-8.37,8.36,3.18ZM341,40.41l5-4.95-2.12-2.12-5,4.95Zm-2.5-12.35,2.12,2.12,4.95-4.95-2.12-2.12Zm-7.4,22.25,4.95-5-2.12-2.12-4.95,4.95Zm10.49,1-11,11,17.76,6.76Zm-1,4.86,3.18,8.36-8.36-3.18Zm13-16.89-11,11L360.34,57Zm-1,4.86,3.18,8.36-8.37-3.18Zm-3.88-15.74,2.12,2.12,4.95-5-2.12-2.12ZM365.33,5.44l-2.12-2.13-4.95,4.95,2.12,2.12ZM354.61,38.25,372.37,45l-6.76-17.75Zm4.85-1,5.18-5.18,3.19,8.37Zm-.82-18.79,2.12,2.12,4.95-4.95-2.12-2.12ZM301.37,80l4.95-5-2.13-2.12-4.95,5Zm54.06-64.68-2.12-2.12-4.95,4.95,2.12,2.12ZM181.84,124V113.29H171.17V124Zm117-56.31L301,69.78l4.95-5-2.13-2.12ZM328.56,38l2.12,2.12,4.95-4.95L333.51,33ZM311.27,70.11l4.94-5L314.09,63,309.14,68Zm25,11-6.76-17.76-11,11Zm-4.54-4.54-8.36-3.18,5.18-5.19ZM321.16,60.21l4.95-5L324,53.14l-4.95,5Zm3.09,32.91L317.5,75.36l-11,11Zm-4.53-4.54-8.37-3.19,5.18-5.18Zm-11-30.82,2.13,2.12,4.94-5-2.12-2.12ZM297.34,0H286.67V8.47h10.67ZM86,182.17h19.25V162.92h19.25V143.67h19.25V124.42H163V105.17h19.25V85.92h19.25V66.67h19.25V47.42H240V28.17h19.25V8.92h19.25V0h-3V5.92H259.29V0h-3V5.92H237V25.17H217.79V44.42H198.54V63.67H179.29V82.92H160v19.25H140.79v19.25H121.54v19.25H102.29v19.25H83v19.25H63.79v19.25H44.54v22.25H66.79V201.42H86ZM256.29,8.92V25.17H240V8.92ZM237,28.17V44.42H220.79V28.17ZM217.79,47.42V63.67H201.54V47.42ZM198.54,66.67V82.92H182.29V66.67ZM179.29,85.92v16.25H163V85.92ZM160,105.17v16.25H143.79V105.17Zm-19.25,19.25v16.25H124.54V124.42Zm-19.25,19.25v16.25H105.29V143.67Zm-19.25,19.25v16.25H86V162.92Zm-38.5,54.75H47.54V201.42H63.79ZM83,198.42H66.79V182.17H83ZM70.23,149.09l2.67-2.67,20.78-20.78L96.35,123l20.78-20.78,23.45-23.45,2.67-2.67,46.91-46.91L210.94,8.38l2.67-2.67L219.32,0h-2.83L212.2,4.3,211.37,0h-2l1,5.08L194,2,193.66,0h-2l.3,1.55L183.83,0H181.4l1.94,10.13L168.25,7.25,175.49,0h-2.83l-8.49,8.49L143.38,29.29,140.71,32,117.26,55.41,96.48,76.2,73,99.65l-2.67,2.67L49.57,123.1l-2.67,2.67L26.12,146.55l-2.67,2.67L0,172.67l19.57,3.75L23.32,196l23.46-23.46ZM48,168.46l-2.89-15.09,10.62,2-2-10.62,15.08,2.89Zm-3.29-17.2-1.63-8.5,8.5,1.63,1.63,8.5ZM71.48,145l-2.89-15.09,10.62,2-2-10.61,15.09,2.89Zm-3.29-17.2-1.63-8.5,8.5,1.62,1.63,8.5Zm26.74-6.25-2.88-15.09,10.61,2-2-10.61,15.09,2.88Zm-3.29-17.2L90,95.85l8.51,1.63,1.62,8.5Zm26.75-6.25L115.5,83l10.62,2-2-10.62,15.09,2.89Zm-3.3-17.21-1.62-8.5L122,74l1.63,8.5Zm26.75-6.25L139,59.57l10.62,2-2-10.62,15.09,2.89Zm-3.29-17.2L136.92,49l8.5,1.63,1.63,8.5Zm26.74-6.25L162.4,36.11l10.62,2-2-10.62,15.08,2.89ZM162,34l-1.63-8.5,8.5,1.62,1.63,8.51ZM194.44,4.08,209.53,7,188.74,27.75l-2.89-15.09,10.62,2Zm-2.11-.41,1.62,8.5-8.5-1.62L183.82,2Zm-8.59,8.59,3.12,16.27-16.28-3.12L167.47,9.14ZM165.58,9.92,168.47,25l-10.62-2,2,10.61L144.8,30.71Zm-5.29,25.79L163.41,52l-16.28-3.11L144,32.59Zm-18.16-2.34L145,48.46l-10.62-2,2,10.62-15.09-2.89Zm-5.29,25.79L140,75.43l-16.27-3.11L120.56,56Zm-18.16-2.33,2.88,15.08-10.61-2,2,10.62L97.89,77.61Zm-5.3,25.78,3.12,16.28-16.27-3.12L97.11,79.5ZM95.22,80.28l2.89,15.09-10.62-2,2,10.62-15.09-2.89Zm-5.29,25.78,3.12,16.28-16.28-3.12L73.66,103Zm-18.16-2.33,2.89,15.09-10.62-2,2,10.61L51,124.51Zm-5.29,25.79,3.12,16.27-16.28-3.11L50.2,126.4Zm-18.16-2.34,2.89,15.09-10.62-2,2,10.62L27.54,148ZM19.17,174.31,4.08,171.42l20.79-20.78,2.88,15.08-10.61-2Zm.49-8.1,8.5,1.63,1.63,8.5-8.51-1.63Zm4.92,25.7-2.89-15.08,10.62,2-2-10.62,15.09,2.89Zm5.29-25.78-3.12-16.28L43,153l3.11,16.27ZM225.81,0,33,192.82,36.17,196l196-196Zm33,47V36.29H248.17V47Zm-57.75,57.75V94H190.42v10.68Zm19.25-19.25V74.79H209.67V85.47Zm19.25-19.25V55.54H228.92V66.22Zm38.5-38.5V17H267.42V27.72ZM68.5,121.25l1,5.24,5.24,1-1-5.24ZM92,97.79,93,103l5.24,1-1-5.24ZM45.05,144.7l1,5.24,5.25,1-1-5.25Zm70.36-70.36,1,5.25,5.25,1-1-5.24Zm46.9-46.9,1,5.24,5.24,1-1-5.25ZM192,10.23,191,5l-5.25-1,1,5.24ZM21.6,168.15l1,5.25,5.25,1-1-5.24ZM138.86,50.89l1,5.24,5.25,1-1-5.25Z"/>
    </g>
  </g>
</svg>
