<svg xmlns="http://www.w3.org/2000/svg" viewBox="0 0 789.49 34.88">
  <defs>
    <style>
      .cls-1 {
        fill: #eec253;
      }
    </style>
  </defs>
  <g id="Layer_2" data-name="Layer 2">
    <g id="OBJECTS">
      <g>
        <path class="cls-1" d="M0,0,7.78,17.33,15.56,0ZM4.11,2.75h7.33L7.78,10.92Z"/>
        <path class="cls-1" d="M17,0l7.78,17.33L32.57,0Zm4.11,2.75h7.33l-3.66,8.17Z"/>
        <path class="cls-1" d="M34,0,41.8,17.33,49.58,0Zm4.11,2.75h7.33L41.8,10.92Z"/>
        <path class="cls-1" d="M51,0l7.78,17.33L66.59,0Zm4.11,2.75h7.33l-3.66,8.17Z"/>
        <path class="cls-1" d="M68,0l7.78,17.33L83.6,0Zm4.11,2.75h7.33l-3.66,8.17Z"/>
        <path class="cls-1" d="M85.05,0l7.78,17.33L100.61,0Zm4.11,2.75h7.33l-3.66,8.17Z"/>
        <path class="cls-1" d="M102.06,0l7.78,17.33L117.62,0Zm4.11,2.75h7.33l-3.66,8.17Z"/>
        <path class="cls-1" d="M119.07,0l7.78,17.33L134.63,0Zm4.11,2.75h7.33l-3.66,8.17Z"/>
        <path class="cls-1" d="M136.08,0l7.78,17.33L151.64,0Zm4.12,2.75h7.32l-3.66,8.17Z"/>
        <path class="cls-1" d="M153.09,0l7.78,17.33L168.65,0Zm4.12,2.75h7.32l-3.66,8.17Z"/>
        <path class="cls-1" d="M170.1,0l7.78,17.33L185.66,0Zm4.12,2.75h7.32l-3.66,8.17Z"/>
        <path class="cls-1" d="M187.11,0l7.78,17.33L202.67,0Zm4.12,2.75h7.33l-3.67,8.17Z"/>
        <path class="cls-1" d="M204.12,0l7.78,17.33L219.68,0Zm4.12,2.75h7.33l-3.67,8.17Z"/>
        <path class="cls-1" d="M221.13,0l7.78,17.33L236.69,0Zm4.12,2.75h7.33l-3.67,8.17Z"/>
        <path class="cls-1" d="M238.14,0l7.78,17.33L253.7,0Zm4.12,2.75h7.33l-3.67,8.17Z"/>
        <path class="cls-1" d="M255.15,0l7.78,17.33L270.71,0Zm4.12,2.75h7.33l-3.67,8.17Z"/>
        <path class="cls-1" d="M272.16,0l7.78,17.33L287.72,0Zm4.12,2.75h7.33l-3.67,8.17Z"/>
        <path class="cls-1" d="M289.17,0,297,17.33,304.73,0Zm4.12,2.75h7.33L297,10.92Z"/>
        <path class="cls-1" d="M306.18,0,314,17.33,321.74,0Zm4.12,2.75h7.33L314,10.92Z"/>
        <path class="cls-1" d="M323.19,0,331,17.33,338.75,0Zm4.12,2.75h7.33L331,10.92Z"/>
        <path class="cls-1" d="M340.2,0,348,17.33,355.76,0Zm4.12,2.75h7.33L348,10.92Z"/>
        <path class="cls-1" d="M357.21,0,365,17.33,372.77,0Zm4.12,2.75h7.33L365,10.92Z"/>
        <path class="cls-1" d="M374.22,0,382,17.33,389.78,0Zm4.12,2.75h7.33L382,10.92Z"/>
        <path class="cls-1" d="M391.23,0,399,17.33,406.79,0Zm4.12,2.75h7.33L399,10.92Z"/>
        <path class="cls-1" d="M408.24,0,416,17.33,423.8,0Zm4.12,2.75h7.33L416,10.92Z"/>
        <path class="cls-1" d="M425.25,0,433,17.33,440.81,0Zm4.12,2.75h7.33L433,10.92Z"/>
        <path class="cls-1" d="M442.27,0,450,17.33,457.82,0Zm4.11,2.75h7.33L450,10.92Z"/>
        <path class="cls-1" d="M459.28,0l7.77,17.33L474.83,0Zm4.11,2.75h7.33l-3.67,8.17Z"/>
        <path class="cls-1" d="M476.29,0l7.77,17.33L491.84,0Zm4.11,2.75h7.33l-3.67,8.17Z"/>
        <path class="cls-1" d="M493.3,0l7.77,17.33L508.85,0Zm4.11,2.75h7.33l-3.67,8.17Z"/>
        <path class="cls-1" d="M510.31,0l7.77,17.33L525.86,0Zm4.11,2.75h7.33l-3.67,8.17Z"/>
        <path class="cls-1" d="M527.32,0l7.77,17.33L542.87,0Zm4.11,2.75h7.33l-3.67,8.17Z"/>
        <path class="cls-1" d="M544.33,0l7.77,17.33L559.88,0Zm4.11,2.75h7.33l-3.67,8.17Z"/>
        <path class="cls-1" d="M561.34,0l7.77,17.33L576.89,0Zm4.11,2.75h7.33l-3.67,8.17Z"/>
        <path class="cls-1" d="M578.35,0l7.77,17.33L593.9,0Zm4.11,2.75h7.33l-3.67,8.17Z"/>
        <path class="cls-1" d="M595.36,0l7.78,17.33L610.91,0Zm4.11,2.75h7.33l-3.66,8.17Z"/>
        <path class="cls-1" d="M612.37,0l7.78,17.33L627.92,0Zm4.11,2.75h7.33l-3.66,8.17Z"/>
        <path class="cls-1" d="M629.38,0l7.78,17.33L644.93,0Zm4.11,2.75h7.33l-3.66,8.17Z"/>
        <path class="cls-1" d="M646.39,0l7.78,17.33L661.94,0Zm4.11,2.75h7.33l-3.66,8.17Z"/>
        <path class="cls-1" d="M663.4,0l7.78,17.33L679,0Zm4.11,2.75h7.33l-3.66,8.17Z"/>
        <path class="cls-1" d="M680.41,0l7.78,17.33L696,0Zm4.11,2.75h7.33l-3.66,8.17Z"/>
        <path class="cls-1" d="M697.42,0l7.78,17.33L713,0Zm4.11,2.75h7.33l-3.66,8.17Z"/>
        <path class="cls-1" d="M714.43,0l7.78,17.33L730,0Zm4.11,2.75h7.33l-3.66,8.17Z"/>
        <path class="cls-1" d="M731.44,0l7.78,17.33L747,0Zm4.11,2.75h7.33l-3.66,8.17Z"/>
        <path class="cls-1" d="M748.45,0l7.78,17.33L764,0Zm4.11,2.75h7.33l-3.66,8.17Z"/>
        <path class="cls-1" d="M765.46,0l7.78,17.33L781,0Zm4.11,2.75h7.33l-3.66,8.17Z"/>
        <path class="cls-1" d="M781.71,2.75l-7.77,17.33h15.55Zm0,6.42,3.67,8.16h-7.33Z"/>
        <path class="cls-1" d="M756.93,20.08h15.55L764.7,2.75ZM761,17.33l3.66-8.16,3.67,8.16Z"/>
        <path class="cls-1" d="M739.92,20.08h15.55L747.69,2.75ZM744,17.33l3.66-8.16,3.67,8.16Z"/>
        <path class="cls-1" d="M722.91,20.08h15.55L730.68,2.75ZM727,17.33l3.66-8.16,3.67,8.16Z"/>
        <path class="cls-1" d="M705.9,20.08h15.55L713.67,2.75ZM710,17.33l3.66-8.16,3.67,8.16Z"/>
        <path class="cls-1" d="M688.88,20.08h15.56L696.66,2.75ZM693,17.33l3.66-8.16,3.67,8.16Z"/>
        <path class="cls-1" d="M671.87,20.08h15.56L679.65,2.75ZM676,17.33l3.66-8.16,3.67,8.16Z"/>
        <path class="cls-1" d="M654.86,20.08h15.56L662.64,2.75ZM659,17.33l3.66-8.16,3.67,8.16Z"/>
        <path class="cls-1" d="M637.85,20.08h15.56L645.63,2.75ZM642,17.33l3.66-8.16,3.67,8.16Z"/>
        <path class="cls-1" d="M620.84,20.08H636.4L628.62,2.75ZM625,17.33l3.66-8.16,3.67,8.16Z"/>
        <path class="cls-1" d="M603.83,20.08h15.56L611.61,2.75ZM608,17.33l3.66-8.16,3.67,8.16Z"/>
        <path class="cls-1" d="M586.82,20.08h15.56L594.6,2.75Zm4.12-2.75,3.66-8.16,3.67,8.16Z"/>
        <path class="cls-1" d="M569.81,20.08h15.56L577.59,2.75Zm4.12-2.75,3.66-8.16,3.67,8.16Z"/>
        <path class="cls-1" d="M552.8,20.08h15.56L560.58,2.75Zm4.12-2.75,3.66-8.16,3.67,8.16Z"/>
        <path class="cls-1" d="M535.79,20.08h15.56L543.57,2.75Zm4.12-2.75,3.66-8.16,3.67,8.16Z"/>
        <path class="cls-1" d="M518.78,20.08h15.56L526.56,2.75Zm4.12-2.75,3.66-8.16,3.67,8.16Z"/>
        <path class="cls-1" d="M501.77,20.08h15.56L509.55,2.75Zm4.12-2.75,3.66-8.16,3.67,8.16Z"/>
        <path class="cls-1" d="M484.76,20.08h15.56L492.54,2.75Zm4.12-2.75,3.66-8.16,3.67,8.16Z"/>
        <path class="cls-1" d="M467.75,20.08h15.56L475.53,2.75Zm4.12-2.75,3.66-8.16,3.67,8.16Z"/>
        <path class="cls-1" d="M450.74,20.08H466.3L458.52,2.75Zm4.12-2.75,3.66-8.16,3.66,8.16Z"/>
        <path class="cls-1" d="M433.73,20.08h15.56L441.51,2.75Zm4.12-2.75,3.66-8.16,3.66,8.16Z"/>
        <path class="cls-1" d="M416.72,20.08h15.56L424.5,2.75Zm4.12-2.75,3.66-8.16,3.66,8.16Z"/>
        <path class="cls-1" d="M399.71,20.08h15.56L407.49,2.75Zm4.11-2.75,3.67-8.16,3.66,8.16Z"/>
        <path class="cls-1" d="M382.7,20.08h15.56L390.48,2.75Zm4.11-2.75,3.67-8.16,3.66,8.16Z"/>
        <path class="cls-1" d="M365.69,20.08h15.56L373.47,2.75Zm4.11-2.75,3.67-8.16,3.66,8.16Z"/>
        <path class="cls-1" d="M348.68,20.08h15.56L356.46,2.75Zm4.11-2.75,3.67-8.16,3.66,8.16Z"/>
        <path class="cls-1" d="M331.67,20.08h15.56L339.45,2.75Zm4.11-2.75,3.67-8.16,3.66,8.16Z"/>
        <path class="cls-1" d="M314.66,20.08h15.56L322.44,2.75Zm4.11-2.75,3.67-8.16,3.66,8.16Z"/>
        <path class="cls-1" d="M297.65,20.08h15.56L305.43,2.75Zm4.11-2.75,3.67-8.16,3.66,8.16Z"/>
        <path class="cls-1" d="M280.64,20.08H296.2L288.42,2.75Zm4.11-2.75,3.67-8.16,3.66,8.16Z"/>
        <path class="cls-1" d="M263.63,20.08h15.56L271.41,2.75Zm4.11-2.75,3.67-8.16,3.66,8.16Z"/>
        <path class="cls-1" d="M246.62,20.08h15.56L254.4,2.75Zm4.11-2.75,3.67-8.16,3.66,8.16Z"/>
        <path class="cls-1" d="M229.61,20.08h15.56L237.39,2.75Zm4.11-2.75,3.67-8.16,3.66,8.16Z"/>
        <path class="cls-1" d="M212.6,20.08h15.56L220.38,2.75Zm4.11-2.75,3.67-8.16L224,17.33Z"/>
        <path class="cls-1" d="M195.59,20.08h15.56L203.37,2.75Zm4.11-2.75,3.67-8.16L207,17.33Z"/>
        <path class="cls-1" d="M178.58,20.08h15.56L186.36,2.75Zm4.11-2.75,3.67-8.16L190,17.33Z"/>
        <path class="cls-1" d="M161.57,20.08h15.56L169.35,2.75Zm4.11-2.75,3.67-8.16L173,17.33Z"/>
        <path class="cls-1" d="M144.56,20.08h15.55L152.34,2.75Zm4.11-2.75,3.67-8.16L156,17.33Z"/>
        <path class="cls-1" d="M127.55,20.08H143.1L135.33,2.75Zm4.11-2.75,3.67-8.16L139,17.33Z"/>
        <path class="cls-1" d="M110.54,20.08h15.55L118.32,2.75Zm4.11-2.75,3.67-8.16L122,17.33Z"/>
        <path class="cls-1" d="M93.53,20.08h15.55L101.31,2.75Zm4.11-2.75,3.67-8.16L105,17.33Z"/>
        <path class="cls-1" d="M76.52,20.08H92.07L84.3,2.75Zm4.11-2.75L84.3,9.17,88,17.33Z"/>
        <path class="cls-1" d="M59.51,20.08H75.06L67.29,2.75Zm4.11-2.75,3.67-8.16L71,17.33Z"/>
        <path class="cls-1" d="M42.5,20.08H58.05L50.28,2.75Zm4.11-2.75,3.67-8.16,3.66,8.16Z"/>
        <path class="cls-1" d="M25.49,20.08H41L33.27,2.75Zm4.11-2.75,3.67-8.16,3.66,8.16Z"/>
        <path class="cls-1" d="M8.48,20.08H24L16.26,2.75Zm4.11-2.75,3.67-8.16,3.66,8.16Z"/>
      </g>
      <g>
        <rect class="cls-1" x="7.78" y="26.33" width="3.5" height="3"/>
        <path class="cls-1" d="M779,29.33h-7v-3h7Zm-14,0h-7v-3h7Zm-14,0h-7v-3h7Zm-14,0h-7v-3h7Zm-14,0h-7v-3h7Zm-14,0h-7v-3h7Zm-14,0h-7v-3h7Zm-14,0h-7v-3h7Zm-14,0h-7v-3h7Zm-14,0h-7v-3h7Zm-14,0h-7v-3h7Zm-14,0h-7v-3h7Zm-14,0h-7v-3h7Zm-14,0h-7v-3h7Zm-14,0h-7v-3h7Zm-14,0h-7v-3h7Zm-14,0h-7v-3h7Zm-14,0h-7v-3h7Zm-14,0h-7v-3h7Zm-14,0h-7v-3h7Zm-14,0h-7v-3h7Zm-14,0h-7v-3h7Zm-14,0h-7v-3h7Zm-14,0h-7v-3h7Zm-14,0h-7v-3h7Zm-14,0h-7v-3h7Zm-14,0h-7v-3h7Zm-14,0h-7v-3h7Zm-13.95,0h-7v-3h7Zm-14,0h-7v-3h7Zm-14,0h-7v-3h7Zm-14,0h-7v-3h7Zm-14,0h-7v-3h7Zm-14,0h-7v-3h7Zm-14,0h-7v-3h7Zm-14,0h-7v-3h7Zm-13.95,0h-7v-3h7Zm-14,0h-7v-3h7Zm-14,0h-7v-3h7Zm-14,0h-7v-3h7Zm-14,0h-7v-3h7Zm-14,0h-7v-3h7Zm-14,0h-7v-3h7Zm-14,0h-7v-3h7Zm-14,0h-7v-3h7Zm-13.95,0h-7v-3h7Zm-14,0h-7v-3h7Zm-14,0h-7v-3h7Zm-14,0h-7v-3h7Zm-14,0h-7v-3h7Zm-14,0h-7v-3h7Zm-14,0h-7v-3h7Zm-14,0h-7v-3h7Zm-14,0h-7v-3h7Zm-14,0h-7v-3h7Z"/>
        <rect class="cls-1" x="785.99" y="26.33" width="3.5" height="3"/>
      </g>
      <rect class="cls-1" x="25.67" y="32.43" width="750" height="2.44"/>
    </g>
  </g>
</svg>
