<svg xmlns="http://www.w3.org/2000/svg" viewBox="0 0 750 500">
  <defs>
    <style>
      .cls-1 {
        fill: #f7e4af;
      }

      .cls-2 {
        fill: #f5ecdd;
      }
    </style>
  </defs>
  <g id="Layer_2" data-name="Layer 2">
    <g id="BACKGROUND">
      <g>
        <rect class="cls-1" width="750" height="500"/>
        <g>
          <path class="cls-2" d="M534.12,412.2c-19.73-1.12-39.42-4.13-49.79-18.44a64.1,64.1,0,0,1-5.74-10.47,59.4,59.4,0,0,0-6.41-11.42c-15.3-19.73-47-13.11-67.93-8.73a339.85,339.85,0,0,1-148.31-2.29c-17.28-4.17-41.44-12-51.6-31.79-.78-1.52-1.49-3.15-2.18-4.72-1.76-4-3.57-8.14-6.78-11.21-7.27-6.94-18.5-6.08-28.47-4.72L0,331.14v1L167.05,309.4c9.73-1.32,20.69-2.18,27.63,4.45,3.08,2.93,4.85,7,6.56,10.89.7,1.59,1.42,3.23,2.21,4.78,10.35,20.16,34.78,28.09,52.26,32.31a341.08,341.08,0,0,0,148.75,2.28c22-4.58,52-10.86,66.93,8.37a59.2,59.2,0,0,1,6.3,11.23,64.8,64.8,0,0,0,5.83,10.64c10.62,14.64,30.56,17.71,50.54,18.84,49.47,2.81,99.67,3.48,149.21,2,21.9-.66,44.55-1.77,66.73-5.8v-1c-22.17,4-44.84,5.15-66.76,5.81C633.73,415.67,583.56,415,534.12,412.2Z"/>
          <path class="cls-2" d="M547.27,351.81c-10.91-3.75-21.66-8.78-32.06-13.64-18.91-8.84-38.45-18-59.5-19.63-16-1.26-32,1.91-47.48,5-12,2.37-24.38,4.81-36.69,5.21-36.38,1.17-70.18-15.14-102.87-30.92-24.87-12-50.58-24.41-77.68-29.44-28.22-5.24-57.37-2.36-85.55.43-21.88,2.16-44.51,4.39-66.64,2.84A195.1,195.1,0,0,1,0,264.88v1a195.8,195.8,0,0,0,38.73,6.71c22.21,1.56,44.88-.68,66.81-2.85,28.11-2.78,57.18-5.65,85.27-.44,27,5,52.62,17.39,77.43,29.36,32.8,15.83,66.7,32.19,103.33,31,12.4-.4,24.83-2.86,36.85-5.23,15.43-3.05,31.38-6.19,47.21-4.95,20.87,1.63,40.33,10.73,59.15,19.53C525.21,344,536,349,547,352.75c49.73,17.08,103.15,8.49,154.82.18,15.88-2.55,32-5.14,48.23-7v-1c-16.25,1.89-32.46,4.49-48.39,7.06C650.07,360.23,596.77,368.8,547.27,351.81Z"/>
          <path class="cls-2" d="M201.53,2.33c29.32,3.1,59.64,6.31,88.85,13.15,9.26,2.17,18.59,4.75,27.61,7.25,11.27,3.11,22.91,6.33,34.55,8.79,26,5.5,53,7.4,79.17,9.24,16.07,1.13,32.69,2.3,48.92,4.29,37.7,4.64,75.33,14,111.71,23,45.9,11.39,93.37,23.18,141.32,25.58,2.33.12,4.67.21,7,.31,3.09.13,6.2.26,9.32.44v-1c-3.1-.18-6.2-.31-9.28-.44-2.35-.09-4.68-.19-7-.31-47.86-2.4-95.27-14.17-141.12-25.55-36.42-9-74.08-18.4-111.84-23-16.26-2-32.89-3.17-49-4.3-26.09-1.84-53.06-3.74-79-9.22-11.61-2.45-23.24-5.67-34.49-8.78-9-2.49-18.37-5.08-27.65-7.25C261.34,7.65,231,4.44,201.64,1.34L189,0h-9.5Z"/>
          <path class="cls-2" d="M750,486.93c-86.31.71-173,1-258.78.93-55.46-.06-118.32-.14-178.39-10.47-10-1.71-21.23-4.22-27.92-12.21a45,45,0,0,1-3.85-5.65,36.45,36.45,0,0,0-5.38-7.31c-4.78-4.63-11.49-6.26-18-7.34a157.24,157.24,0,0,0-67.81,3.86c-3,.86-6.06,1.82-9,2.75-8.61,2.72-17.51,5.53-26.6,6-10.58.49-25-3.09-30.87-14.92a49.28,49.28,0,0,1-2.1-5.21c-1.37-3.84-2.8-7.81-6.07-10.36-3.73-2.9-8.82-3.07-13.71-3A695.33,695.33,0,0,0,0,432.83v1A694.22,694.22,0,0,1,101.49,425c4.91-.07,9.61.1,13.09,2.8,3,2.37,4.35,6,5.74,9.91a49.9,49.9,0,0,0,2.14,5.31c6.09,12.26,20.93,16,31.82,15.48,9.22-.45,18.19-3.28,26.85-6,3-.92,6-1.88,9-2.73a156,156,0,0,1,67.37-3.84c6.38,1.05,12.91,2.62,17.49,7.07a35.48,35.48,0,0,1,5.22,7.11,47.42,47.42,0,0,0,3.94,5.77c6.91,8.25,18.35,10.81,28.52,12.56,60.15,10.34,123.06,10.42,178.56,10.48l31.3,0c75.56,0,151.66-.33,227.48-.95Z"/>
          <path class="cls-2" d="M684.49,259.18c-41.89,1-67.69-18.64-77.83-37.39a120.47,120.47,0,0,1-5.28-11.71c-2.85-7-5.8-14.18-10.91-19.89-8.19-9.15-21.52-14.1-39.62-14.69-25.63-.85-51,5.64-75.49,11.91-12.63,3.23-25.7,6.58-38.66,8.88-20.87,3.72-41.15,3.68-58.65-.11-20.75-4.48-36.76-13.94-47.59-28.11-2.06-2.69-3.95-5.6-5.78-8.41-3.25-5-6.61-10.18-11-14.34C293.13,126,260,134.8,233.45,141.85l-.78.2a390,390,0,0,1-202.92-.9c-4.1-1.12-8.27-2.34-12.29-3.51C11.71,136,5.89,134.26,0,132.75v1c5.79,1.5,11.52,3.17,17.18,4.82,4,1.17,8.2,2.39,12.3,3.52a391.17,391.17,0,0,0,203.45.9l.78-.21c26.34-7,59.13-15.67,79.25,3.24,4.34,4.08,7.66,9.2,10.88,14.15,1.84,2.83,3.75,5.76,5.83,8.48,11,14.36,27.18,23.94,48.17,28.48,17.62,3.81,38,3.85,59,.12,13-2.31,26.09-5.66,38.74-8.9,24.44-6.25,49.72-12.72,75.21-11.88,17.81.58,30.91,5.41,38.91,14.36,5,5.58,7.9,12.7,10.72,19.59a125,125,0,0,0,5.33,11.82c6.81,12.58,18.36,22.74,33.39,29.38,13.35,5.89,29.46,8.92,45.35,8.53,21.84-.53,43.39-6.15,64.23-11.59l1.25-.32v-1l-1.5.39C727.71,253.05,706.22,258.65,684.49,259.18Z"/>
          <path class="cls-2" d="M171.78,181.41c36.9.3,75.05.61,108.4,16.21,3.26,1.52,6.51,3.21,9.66,4.85a143,143,0,0,0,17.69,8.2c16.74,6,35,5.45,52.66,5l3.2-.08a998.7,998.7,0,0,1,112.24,3.31c48.12,4.15,84,11,116.32,22.08,6.52,2.24,13.09,4.74,19.44,7.15,11,4.19,22.36,8.51,33.9,11.67,27.91,7.62,57.22,8.61,85.56,9.57,6.34.21,12.73.42,19.15.54v-1c-6.4-.12-12.79-.33-19.12-.54-28.28-1-57.53-1.94-85.33-9.54-11.49-3.14-22.84-7.46-33.81-11.63-6.35-2.42-12.93-4.92-19.47-7.17-32.41-11.15-68.35-18-116.55-22.12-28.41-2.45-57.16-3.68-85.78-3.68q-13.32,0-26.58.36l-3.2.09c-17.57.49-35.73,1-52.3-4.9a142.89,142.89,0,0,1-17.56-8.15c-3.15-1.64-6.42-3.34-9.69-4.87-33.56-15.69-71.82-16-108.82-16.3-4.88,0-9.74-.08-14.57-.15A896.31,896.31,0,0,1,0,163.92v1a898.07,898.07,0,0,0,157.2,16.32C162,181.33,166.9,181.37,171.78,181.41Z"/>
          <path class="cls-2" d="M543.87,282.66c-4.85-.51-9.13-1.15-12.3-3.86-3.93-3.35-4.76-8.56-5.63-14.07a58.15,58.15,0,0,0-1.5-7.36c-4.22-14.05-19.84-21.3-32.57-22.1-12.13-.77-24.13,2.6-35.72,5.86l-4.91,1.37c-110,30.13-226.25,7.21-335.45-22.05l-4.9-1.31c-36.64-9.83-74-19.85-110.89-21.91v1c36.75,2.06,74.07,12.06,110.63,21.87l4.91,1.32c109.32,29.29,225.69,52.24,336,22l4.92-1.37c11.51-3.23,23.41-6.57,35.39-5.83,12.39.78,27.59,7.81,31.67,21.4a58.2,58.2,0,0,1,1.47,7.23c.86,5.44,1.76,11.08,6,14.67,3.66,3.14,9,3.69,12.85,4.09A1392.22,1392.22,0,0,0,750,289.73v-1A1392.26,1392.26,0,0,1,543.87,282.66Z"/>
          <path class="cls-2" d="M24.81,47.26c6.9.8,14,1.62,21,2.35a855.19,855.19,0,0,0,130.5,3.58l2.44-.13c15.12-.76,30.75-1.55,44.95,3.62A112.46,112.46,0,0,1,238,63.46a121.92,121.92,0,0,0,13.37,6.44c14,5.42,29.92,5.46,43.92,5.49l257.9.63c-6.2,13.58,2.45,30.11,14.27,37.84,12.7,8.31,28.53,9.81,42.5,11.13L750,138.27v-1L610,124c-13.85-1.31-29.55-2.8-42-11C556.32,105.39,547.8,89,554.4,75.74l.36-.72-259.49-.63c-13.91,0-29.68-.07-43.56-5.42a120.81,120.81,0,0,1-13.26-6.4A113.21,113.21,0,0,0,224,55.74c-14.38-5.23-30.12-4.44-45.34-3.67l-2.44.12A855.79,855.79,0,0,1,45.91,48.62c-7-.73-14.09-1.56-21-2.35-8.26-1-16.58-1.92-24.92-2.75v1C8.3,45.35,16.58,46.31,24.81,47.26Z"/>
          <path class="cls-2" d="M4.23,375.44c9.36-.75,18.91-1.87,28.15-2.95,27.94-3.28,56.84-6.66,84.44-.32,17.09,3.92,33.39,11.55,49.14,18.94,18.3,8.56,37.22,17.42,57.45,20.5,14.5,2.21,29.9,1.55,44.81.91,27.39-1.18,53.27-2.29,74.39,12.78a117.27,117.27,0,0,1,12.83,11.19c2.5,2.41,5.09,4.89,7.76,7.19,34.37,29.59,82.51,31.16,133,30.2L750,469v-1l-253.85,4.88c-50.26,1-98.2-.6-132.3-30-2.65-2.28-5.22-4.75-7.71-7.15a117.47,117.47,0,0,0-12.95-11.28c-21.39-15.27-48.65-14.1-75-13-14.85.64-30.21,1.3-44.61-.89-20.09-3.06-38.94-11.89-57.17-20.43-15.81-7.4-32.15-15.06-49.35-19-27.76-6.38-56.75-3-84.78.3-9.22,1.09-18.77,2.2-28.11,2.95L0,374.75v1Z"/>
          <path class="cls-2" d="M661.11,186.28c-2.33-3-4.46-6.27-6.51-9.44-3.6-5.56-7.33-11.31-12.37-15.8-17.63-15.72-45-11.72-66.91-8.51-51,7.45-88.35,5.72-121.1-5.62-16.07-5.57-31.48-13.8-46.37-21.76-21-11.23-42.72-22.84-66.49-27-34-6-68.05,3.84-101,13.32C219.07,117.6,197,123.94,175,126.08c-14.64,1.43-26,.52-35.84-2.87-9.48-3.26-17.94-9.09-26.12-14.72-4.33-3-8.81-6.07-13.4-8.75C69.77,82.27,34.91,80.87,0,82.2v1c34.78-1.33,69.49.05,99.14,17.39,4.57,2.67,9,5.74,13.34,8.71,8.24,5.67,16.76,11.54,26.36,14.85,9.95,3.43,21.47,4.36,36.27,2.92,22.12-2.15,44.19-8.51,65.54-14.65,32.82-9.45,66.76-19.21,100.54-13.3,23.61,4.14,45.25,15.71,66.19,26.9,14.92,8,30.36,16.23,46.51,21.82,32.92,11.4,70.41,13.15,121.58,5.67,21.75-3.19,48.82-7.14,66.1,8.26,4.93,4.4,8.62,10.1,12.19,15.61,2.07,3.18,4.2,6.47,6.56,9.5,17.36,22.29,50,33.53,89.68,31v-1C710.6,219.42,678.27,208.31,661.11,186.28Z"/>
        </g>
      </g>
    </g>
  </g>
</svg>
