<svg xmlns="http://www.w3.org/2000/svg" viewBox="0 0 666.21 259.15">
  <defs>
    <style>
      .cls-1 {
        fill: #013278;
      }
    </style>
  </defs>
  <g id="Layer_2" data-name="Layer 2">
    <g id="Graphic_elements" data-name="Graphic elements">
      <g>
        <path class="cls-1" d="M645.12,127.65c6.7-2.76,14-2.07,21.09-1.23-2.49-1-4.89-2.12-7.25-3.22-1-.49-2.06-1-3.1-1.44-9.18-4.16-18.19-7.63-27.46-4.42-10.86,3.75-20.46,12.75-27.6,20.16a8.17,8.17,0,0,0-.68.9,11.6,11.6,0,0,1-1.69,2c-13.43,12.29-40.23,25.42-59,11.22-6.1-4.61-10.48-10.92-14.1-16.48-11-16.8-23.91-31.45-44.37-25a11.51,11.51,0,0,0-1.57.67,20,20,0,0,1-2.06.9c-.29.1-.67.25-1.09.42-2.61,1-4.6,1.75-6.31,1.51a3.27,3.27,0,0,1-2.55-2c-1.39-3.4,1.63-6.11,3.26-7.56.26-.23.5-.44.66-.61a25.79,25.79,0,0,1,3.16-2.76,13,13,0,0,0,3.06-2.9c7.16-11.16,7.33-22.17.52-31.85-10.5-14.89-35.87-23.66-55.4-19.14-9.5,2.19-21.4,8.36-24.12,25.26l-2,12.43a3.26,3.26,0,0,1-6.44-1c1.58-10.65,3.37-22.71-.21-33.32-2.28-6.76-6.93-13.45-14.22-20.46C349.42,4.55,309.73-5.86,274.52,3.25,258,7.53,244.41,16.35,231.87,31c-8.08,9.43-17.8,22.13-21.33,36.91-5.13,21.47,3.81,45.81,22.24,60.57C250,142.27,274.4,147.4,298,142.19A68.77,68.77,0,0,0,316,135.61a61.32,61.32,0,0,1,9.87-6.92c.74-.67,1.47-1.34,2.15-2,15-15.71,12.81-40.74,2.17-54.91-9.41-12.53-23.34-15.26-38.22-7.5-4.64,2.41-10.07,7.58-11,13.23a8.85,8.85,0,0,0,2.55,7.93,3.26,3.26,0,1,1-4.76,4.45,15.36,15.36,0,0,1-4.22-13.48c1.35-7.88,8.23-14.68,14.46-17.92,17.74-9.23,35.1-5.73,46.44,9.37,10.58,14.08,13.82,37.52,3.31,55.37,10.12-3.13,22.08-4.3,36-2.51,14.38,1.84,33.57,10.41,40.31,28.49,7.24,19.41-4.46,39.75-19.15,49-9.68,6.13-23.3,7.57-33.12,3.52a23.09,23.09,0,0,1-14.21-16.82c-2.81-12.3,4.5-25,16-27.65,6.32-1.49,12.25-.58,15.87,2.42,1.92,1.6,4.17,4.58,3.94,9.75a10.83,10.83,0,0,1-4.81,8.28,9.31,9.31,0,0,1-8.35,1.25,3.26,3.26,0,1,1,2.17-6.15,3,3,0,0,0,2.54-.51,4.32,4.32,0,0,0,1.94-3.16,5.08,5.08,0,0,0-1.59-4.44c-2-1.65-6-2.09-10.22-1.1-8.86,2.08-12.88,11.95-11.08,19.86a16.58,16.58,0,0,0,10.33,12.24c8,3.29,19.16,2.06,27.15-3,12.52-7.91,22.57-25.06,16.53-41.24-5.73-15.36-22.45-22.69-35-24.31-18.44-2.36-33.11.86-44.24,7a56.89,56.89,0,0,1-9.71,6.78,52,52,0,0,0-13.76,18.81c-8.76,20.66-3.41,49,11.17,69a2.94,2.94,0,0,1,.82.39,3.22,3.22,0,0,1,1.41,2.5,64.37,64.37,0,0,0,12.12,11.63c19.4,14.1,51.37,17.37,71.29,7.3,13.95-7.06,25.57-19.9,33-36.4a34.41,34.41,0,0,1-9.64-4.61c-7-4.88-11.29-12.65-11.32-20.27a3.26,3.26,0,0,1,3.25-3.27h0a3.26,3.26,0,0,1,3.26,3.25c0,5.54,3.29,11.26,8.55,15,4.63,3.25,10.89,5.11,18.09,5.39,15.46.61,29.78-5.91,45.14-20.47a3.26,3.26,0,1,1,4.49,4.73c-15.82,15-31.47,22.3-47.77,22.3-.7,0-1.41,0-2.11,0a50.7,50.7,0,0,1-5.2-.48c-2.36,10.76,8.52,21.2,15.8,25.92,12,7.77,28.6,9.07,43.33,3.4,13.62-5.24,25.41-17.32,33.26-34a25.53,25.53,0,0,1-6.24-19.54c1-8.35,7-17.39,20.94-17.7a16.68,16.68,0,0,1,12.3,5.18c3.8,4.08,5.38,9.92,4.69,17.35a3.26,3.26,0,0,1-6.49-.61c.51-5.5-.49-9.63-3-12.3a10.25,10.25,0,0,0-7.38-3.11c-11.94.28-14.2,8.46-14.62,12a18.67,18.67,0,0,0,13.56,19.85c12.57,3.34,32.57-1.11,41.17-12.83,2-2.75,1.67-4.94,1.16-8.27a21.5,21.5,0,0,1,0-9.29c2.26-8.73,10.14-8.29,14.83-8,1.54.09,3,.08,4.6.18a11.25,11.25,0,0,0,3.19-.07c6.49-1.93,8.1-8.2,9.83-17.54.45-2.45.88-4.77,1.48-7C627.94,139.2,634.64,132,645.12,127.65Z"/>
        <path class="cls-1" d="M300.16,157.16a57,57,0,0,1,5.73-10.35c-2.12.65-4.28,1.26-6.53,1.75-25.47,5.63-51.88,0-70.65-15a70.41,70.41,0,0,1-22.14-31.08c-16.46.31-31,4.83-41.07,12.86-12.81,10.23-24.33,30.22-21.57,48.63a34.74,34.74,0,0,0,12.59,21.81c9.56,7.62,27.94,9.72,40.12,4.59,7.6-3.2,11.84-8.6,12.6-16.06,1-9.74-6-16.35-12.89-18.37-6-1.75-13.87-.59-18.17,7.9a3.26,3.26,0,1,1-5.82-2.94c5-9.94,15.17-14.34,25.83-11.22,9.4,2.76,18.9,11.85,17.53,25.29-1,9.73-6.86,17.33-16.55,21.41a46.56,46.56,0,0,1-17.85,3.31c-10.73,0-21.69-3.09-28.87-8.81a41.32,41.32,0,0,1-15-26,45.21,45.21,0,0,1-.21-11.27c-13.23-9.33-32.41-9-45.69.74-5.63,4.14-9.59,10-13.79,16.2-5.34,7.89-10.86,16-20.15,20.7-4.54,2.28-9.58,2.84-14.35,3.21-7.87.62-12.9-1.63-18.25-4-2.07-.92-4.22-1.87-6.64-2.7-.92-.32-1.81-.67-2.69-1a17.09,17.09,0,0,0-5.87-1.62,28.53,28.53,0,0,0-9.2,1l-.64.18c9.15,3.25,13.73,13.42,16.29,19.1,6.12,13.61,12.77,22.2,27,23,13,.74,23.06-5.81,33.68-12.75,5.68-3.71,11.56-7.55,18-10.3a42.57,42.57,0,0,1,5.15-1.78,3.23,3.23,0,0,1,1.6-.82,39.06,39.06,0,0,1,7.33-.7c14.7-.78,28.15,6.53,41.26,13.68,10.07,5.5,20.49,11.18,31,12.72,16.26,2.37,32.24-1.89,42.77-11.4a3.26,3.26,0,1,1,4.37,4.84c-9.81,8.86-23.67,13.72-38.34,13.72a66.9,66.9,0,0,1-9.74-.71c-11.6-1.7-22.45-7.58-32.94-13.3,2.08,2,4.05,4,5.92,5.87,2.93,3,5.7,5.75,8.23,7.94,1.46,1.26,2.86,2.49,4.23,3.69,10.95,9.61,18.86,16.56,33.39,19.21a52.3,52.3,0,0,0,28.39-2.93c9-3.7,14.18-9.74,20.13-16.72,1-1.23,2.12-2.49,3.23-3.76h0a3.26,3.26,0,0,1,5.66,2.74c1.16,1.6,5.22,5,9.34,7.68,16.69,11,35,1.32,45.86-13C296,210.57,290.41,180.13,300.16,157.16Z"/>
      </g>
    </g>
  </g>
</svg>
