<svg xmlns="http://www.w3.org/2000/svg" viewBox="0 0 391.64 190.44">
  <defs>
    <style>
      .cls-1 {
        fill: #013278;
      }
    </style>
  </defs>
  <g id="Layer_2" data-name="Layer 2">
    <g id="Graphic_elements" data-name="Graphic elements">
      <path class="cls-1" d="M391.64,148a23.51,23.51,0,0,1-10.72-9,34.2,34.2,0,0,1-3.13-6.22c-1.63-3.85-3-7.18-6.91-8.74-7.15-2.87-16.42-.3-22.55,1.4-9.89,2.75-17.95,1.46-23-3.57-.77,1-1.56,1.89-2.35,2.81-3,3.51-5.86,6.82-6.31,11.2a1.78,1.78,0,0,0,.46,1.55,2.14,2.14,0,0,1,.56,3,2.13,2.13,0,0,1-3,.56,5.84,5.84,0,0,1-2.31-5.52c.6-5.71,4-9.69,7.33-13.54,2.49-2.91,4.84-5.65,5.89-9,1.5-4.76.27-10.11-3.39-14.68-6.95-8.7-21.49-13.8-32-7.53a22.81,22.81,0,0,0-7.13,6.47c-3.67,8-10.23,12.33-19,12.65a16.68,16.68,0,0,1-2.41-.15,8.37,8.37,0,0,0-2.86,0s0,.16,0,.43c0,1.5.14,3,.25,4.48.37,5,.76,10.1-2.22,15.21-8,13.71-25,19.17-37.15,19.68-.58,0-1.18,0-1.78,0C203.07,149.5,184.73,142,177,127a2.13,2.13,0,0,1,3.79-2c7.26,14,25,20.7,38.77,20.13,11.08-.46,26.54-5.34,33.64-17.55,2.3-4,2-8,1.65-12.75-.12-1.53-.24-3.11-.26-4.73a4.58,4.58,0,0,1,1.4-3.66c1.7-1.55,4.2-1.27,6.21-1a16.69,16.69,0,0,0,1.78.13c6.95-.26,12-3.53,15-9.66a1.85,1.85,0,0,1,.18-.44l.24-.39.05-.09c5.44-12.39,1.54-31-5.58-39.37-6.57-7.7-20.41-13.57-30.54-10-3.8,1.32-6.88-1.23-9.36-3.28a26.06,26.06,0,0,0-2.07-1.6c-4.65-3.08-11.9-4-18.46-2.26a24.89,24.89,0,0,0-16.14,12.91c4.28,7.9,3.59,17.73,1.29,25a2.24,2.24,0,0,1,0,.58c-.92,8.89,6.59,19.17,16.06,22s22.69-.53,26.46-9.89a14,14,0,0,0-.19-11,21.48,21.48,0,0,0-12-10.93c-2.74-1-8.21-2.12-11.26-.54a3.27,3.27,0,0,0-1.8,2.24,3,3,0,0,0,.37,2.48,8.55,8.55,0,0,0,5.27,3.23,2.13,2.13,0,1,1-.95,4.16c-2.69-.61-6.2-2.29-8-5.16a7.32,7.32,0,0,1-.87-5.76,7.59,7.59,0,0,1,4-5c4.66-2.42,11.69-.83,14.76.35a25.78,25.78,0,0,1,14.37,13.2,18.13,18.13,0,0,1,.24,14.3c-3.64,9-13.71,13.55-23.4,13.55a28.79,28.79,0,0,1-8.24-1.17,28.2,28.2,0,0,1-18.38-19c-5.83,9.76-16.27,17.82-28.24,21.43-9.51,2.85-27.14,3.35-34-7.48A14.27,14.27,0,0,1,131,91.57a11.93,11.93,0,0,0-.81-3.83c-.59-1.22-1-1.3-3-1.5l-1.32-.15a17.37,17.37,0,0,1-14-10.8,21.69,21.69,0,0,1,2.61-21.07c4.7-6.25,12.81-9.72,21.68-9.26,8.57.44,16,4.56,19.9,11a2.13,2.13,0,1,1-3.65,2.2c-3.16-5.24-9.32-8.59-16.47-9-7.35-.37-14.26,2.52-18.05,7.56a17.34,17.34,0,0,0-2.08,16.86,13,13,0,0,0,10.6,8.22c.41.06.8.1,1.17.13,2.25.23,4.79.48,6.44,3.9a15.49,15.49,0,0,1,1.21,5.23,10.35,10.35,0,0,0,1.18,4.62c5.31,8.38,20.26,8.36,29.18,5.68,13.31-4,24.52-13.94,28.56-25.3,2.32-6.52,3.35-16.7-1.36-24-3.24-5-9.89-13-18.11-11.12h0a2.12,2.12,0,0,1-2.26-3.24c.15-2.05-1.07-10-1.46-11.3C166.14,10.57,148.49,2.59,133.57.45,116.61-2,98.43,5.59,87.28,19.76a51,51,0,0,0-3.85,5.64,41.75,41.75,0,0,0-5.94,19.88c-.17,6.31,1.77,10.94,4,16.3.46,1.11.94,2.25,1.41,3.43a13.26,13.26,0,0,1,.66,1.72,2.13,2.13,0,0,1-4,1.4c-.18-.49-.37-1-.56-1.45-1.33-2.84-3.88-5-7.6-6.51-8.46-3.36-20.61-2.05-26.65,1.3C34.1,67.37,25.83,79.7,25.09,90.79c-.29,4.31,1.31,6.6,3.51,9.78a47.15,47.15,0,0,1,2.67,4.17h0a2.14,2.14,0,0,1-.84,2.9,2.11,2.11,0,0,1-2.29-.15c-1.69,0-6.87,2-7.95,2.62C8.57,117.2.07,131,0,143c0,8.41,3.93,15.36,11.51,20.1a42.78,42.78,0,0,0,23.14,6.51A54.3,54.3,0,0,0,45,168.09c4.81-1,9.77-2.11,15-1.42,7.9,1,15.26,4.07,22.38,7,6.75,2.78,13.74,5.65,21,6.7,4.29.62,19,2,27.83-5.9,12.44-11.16,14.54-31.14,4.58-43.63a42.83,42.83,0,0,0-27.94-15.36c-8.18-1-16.2,1.06-21.43,5.41-6.48,5.38-7.7,14.68-2.72,20.72a12.46,12.46,0,0,0,5.72,4c4.36,1.39,9.52,0,13.66-1.12a2.13,2.13,0,1,1,1.11,4.12c-4.68,1.27-10.52,2.84-16.07,1.06a16.53,16.53,0,0,1-7.72-5.33c-6.46-7.85-5-19.83,3.29-26.71,6.11-5.09,15.33-7.47,24.66-6.37a47.26,47.26,0,0,1,30.78,16.94c8.15,10.22,9.39,24.33,4.34,36.25,9.37-2.56,21.29,2,26.86,7.64,9,9.16,19.05,18.13,33.36,18.37h.4c9.92,0,18-6.18,25.85-12.16l2.26-1.72c5.27-4,16.68-10.09,26-7.69a13.57,13.57,0,0,1,9.18,8,2.13,2.13,0,0,1-3.9,1.73,9.18,9.18,0,0,0-6.35-5.57c-4-1-9.3.11-14.22,2.26a2,2,0,0,1,0,.48c-.48,2.59,5.36,6.87,9.53,8.5a35.26,35.26,0,0,0,17,1.67c8.22-1.07,17.26-5.51,18.67-14.7-.74-.3-1.48-.61-2.2-1a27.21,27.21,0,0,1-14.27-15.44,21.33,21.33,0,0,1,1.35-16.93,14.3,14.3,0,0,1,11.21-8,12.82,12.82,0,0,1,11.24,4.2,2.13,2.13,0,1,1-3.29,2.71,8.6,8.6,0,0,0-7.49-2.66,9.9,9.9,0,0,0-7.87,5.69,17.2,17.2,0,0,0-1.11,13.61,23,23,0,0,0,12.07,13c8.75,4.19,19.42,3.82,29.27-1,5.76-2.83,10.25-7.57,15-12.6a94.88,94.88,0,0,1,9.41-9.07c3.53-2.82,9-6.6,15.66-6.83,6.5-.25,11.47,3.12,16.29,6.36,4.58,3.07,8.9,6,14.19,5.56A22.83,22.83,0,0,0,391.64,148Z"/>
    </g>
  </g>
</svg>
