<svg xmlns="http://www.w3.org/2000/svg" viewBox="0 0 457.44 468.95">
  <defs>
    <style>
      .cls-1 {
        fill: #303030;
      }

      .cls-2 {
        fill: #fff9ee;
      }
    </style>
  </defs>
  <g id="Layer_2" data-name="Layer 2">
    <g id="OBJECTS">
      <g>
        <path class="cls-1" d="M430,352.32C429,350.66,411.62,324.2,383.57,322c-28.95-2.33-46.07,24-83.67,20.28s-55.6-28.09-83.9-29.37c-35.5-1.61-76.45,18.17-114.53-.43-30.18-14.73-40.7-35.93-43.19-41.87C52,279,31.74,286.6,16.94,270c-12.92-14.52.82-31.88.82-31.88s-10.41-13.19.59-27.56A22,22,0,0,1,34,201.61c-1.08-2.26-5.8-13.74,3.16-26,9.2-12.61,25.55-9.94,25.55-9.94S59.28,135.8,86.38,124.4c33.25-14,56.62,12.7,56.62,12.7s30.05-14.08,48.86,5.26c24.64,25.32,3,49.8,3,49.8,1.69,12.71-2.63,22.58-10.55,28.49,1,5.35,3.85,27.25-12,38.41A29.33,29.33,0,0,1,158,264.38c10.93,18.82,33.38-4,76,4.76,37.46,7.71,41.84,37.13,71.43,45,20.7,5.51,47.12-8.87,75.86-4.56C409.23,313.77,429,350.42,430,352.32Z"/>
        <g>
          <path class="cls-2" d="M107.1,245.07c-.65,7.17,3.11,15.12,10.44,16.91,5.42,1.11,10.94-1.56,15.13-4.81l.72-.59.85.51c15,8.89,35,8.63,45.07-7.32,5.4-9,6.13-20,4.78-30.33,2.68,10.34,2.51,22-2.74,31.53-10.12,17.77-32.62,18.6-48.57,8.33l1.57-.08a27.43,27.43,0,0,1-4.47,2.75c-3.9,1.93-8.5,3.06-12.82,1.84-7.85-2.36-11.59-11.1-10-18.74Z"/>
          <path class="cls-2" d="M165.71,208.48c3.66-2.6,3.25-8.37,1.79-12.11-4.17-10.45-19.62-9.08-23.67.79a19.92,19.92,0,0,0,5.1,23.25c5.3,4.92,12.93,6.12,19.9,5.16,8.41-1.09,16.58-5.43,21.06-12.78,3.86-6.27,4.61-13.83,3.62-21,5.53-6.72,9-15.59,8.73-24.35s-4.57-16.73-10.48-23a32.83,32.83,0,0,0-22.69-10.68,56.83,56.83,0,0,0-25.47,4.64l-.95.41L142,138a54.36,54.36,0,0,0-23-14.35c-17.12-5.27-38.82,0-48.94,15.52a44.18,44.18,0,0,0-6.4,27.34c-8.16-1.24-17.38.51-23.47,6.44a26.21,26.21,0,0,0-7.83,22.29,22.84,22.84,0,0,0,2,6.76A22.9,22.9,0,0,1,32,195.3c-2.2-11.84,5.07-24.83,16.53-28.78a31.8,31.8,0,0,1,14.31-1.65l-.9.86a47.54,47.54,0,0,1,1-14.29c2-9.4,7.28-18.27,15.26-23.79a48.79,48.79,0,0,1,41.48-6.52,56.92,56.92,0,0,1,24.38,15.05l-1.65-.34c14.58-6.22,33-8.14,46.37,1.86,18.16,14.46,21.84,36.88,7.09,55.34l.32-1c1.19,9-.61,18.95-7,25.8-6.15,6.91-15.58,10.16-24.66,10.11-16.41.49-29.32-15.85-21.86-31.29,5.76-12.45,25.51-10.77,26.1,4,.08,2.83-.47,6.34-3.09,7.91Z"/>
          <path class="cls-2" d="M102.44,219.91c1,7.68,12,9,16.79,4,2.45-2.5,3.21-6.22,2.83-9.64-.64-7-8.09-11.8-14.77-11.72a18.26,18.26,0,0,0-16.17,10.79c-2.85,6.24-2.09,13.85,1.07,19.82,9,16.32,34,13.76,41.59-2.45,2.94-6.21,2.05-13.46-.71-19.61l-.15-.34.05-.42c1.5-12.27-2.39-26.21-13.26-33.09-10.52-6.54-24.76-8.05-36-2.56a39.11,39.11,0,0,0-17.34,17.51l-.59,1.22-1.27-.47c-7.5-2.81-16.39,2.11-17,10.33l-.1,2c-9.45-4.25-21-3-27.63,5.64a21.42,21.42,0,0,0-.46,27.26c-10.74,12.33-7.94,29.24,5.74,38,18.59,11.35,46.31-7.77,36.61-29.25C56,235.11,37.91,234.49,34.9,248.56a14.19,14.19,0,0,1,4.25-7.79c7.19-6.43,19.21-2.51,23.17,5.79A21.92,21.92,0,0,1,63,264.38C58.28,275.92,45,282.81,32.83,280.86,20.45,279,10.5,267.09,10.49,254.61a28.37,28.37,0,0,1,6.35-17.34l0,1.57a23.79,23.79,0,0,1,.91-29.61,23.74,23.74,0,0,1,21.16-9A28.64,28.64,0,0,1,46.66,202l-1.93,1.26c.37-8.61,9-15.14,17.35-13.79a15.32,15.32,0,0,1,3.48.81L63.7,191c8.63-17.36,26.17-26.14,45.13-21.35C128.72,174,138,191.31,135.6,210.76l-.09-.75c3,6.75,3.91,14.91.6,21.77C131.3,242,119.28,248,108.22,246.22c-7.36-1-14.33-5.47-17.74-12.16-5.22-9.82-3.49-23.48,6.33-29.72,6.15-4.17,14.89-4.17,20.73.53,7.81,5.32,7.34,19.64-2.66,22-5,1.45-12-1.2-12.44-7Z"/>
          <path class="cls-2" d="M157.61,263.64c11.09,21,37.41-6.35,83.16,6.62a67.71,67.71,0,0,1,25.37,14.19c9.73,8.32,17.83,18.79,29.28,24.75,12,6.55,24,5.78,37,3.37,18.87-3.3,39.21-8.7,57.94-1.85,12.31,5,22,14.48,30.11,24.71a122.59,122.59,0,0,1,10.81,16.31l-2.44,1.4c-11.52-16.94-30.82-31.32-52.15-29.69-12.84.9-24,7.46-35.75,12.56-7.9,3.47-16.26,6.36-25,7.42-17.42,2.15-35-2.35-50.63-9.79-7.84-3.68-15.29-8-22.93-11.76-17.46-9-30.31-9-49.41-6.68-29.24,3.75-60.92,12-89.13-1-19.23-9-37.51-23.45-45.61-43.59,8.49,19.81,26.83,33.92,46.06,42.57,28.28,12.38,59.14,4,88.41,0,12.74-1.64,26.32-2.8,38.76,1.49,12.31,4.09,23.34,11.3,35,16.65a105.6,105.6,0,0,0,24,8.2c16.84,3.79,33.78,1.25,49.33-6.07,11.66-5.13,23.52-12,36.68-12.92,22.51-1.66,42.67,13.29,54.75,31.19L428.82,353c-9.14-16.06-22-32.54-39.4-39.87-11.95-4.56-25.11-3.31-37.55-1.62-15.83,2.05-32.33,7.84-48.25,3.12-26.52-8.08-33.77-34.45-63.19-43.29-44.89-13.46-72,13.53-82.82-7.74Z"/>
        </g>
        <path class="cls-2" d="M133.51,258.19c1.06,9.27,6.26,18.14,14.38,22.87,7.54,4.18,16.34,5.2,24.86,5,20.25-.83,40.44-7,60.78-3.45,16.29,2.53,27.85,15.25,39.69,25.46,9,7.77,19.65,13.82,31.6,15,31.32,3.76,55.85-21.13,88.07-9.83-32.4-10.25-56.71,15.18-88.26,11.55-12.26-1.16-23.46-7.39-32.64-15.29-11.8-9.94-22.86-22.5-38.77-25.1-20.17-3.55-40.25,2.46-60.45,2.89-8.65.09-17.71-1.09-25.28-5.58-8.13-5-13.25-14.14-14-23.54Z"/>
        <path class="cls-2" d="M61.46,218.63c-1.1,4.44.28,8.92,2.25,12.85,3.89,7.69,11.76,13.51,20.66,12.8,4.36-.26,8.65-1.81,12.85-3.73a26,26,0,0,1-12.6,6.06c-9.87,1.81-19.63-5.12-23-14.16-1.7-4.33-2.5-9.62-.13-13.82Z"/>
        <path class="cls-2" d="M84.7,245.59C92.86,266.37,107,286,127.42,296c9.38,4.12,19.77,4.92,29.92,4.51,16.42-.66,32.65-4.26,49-5.89,8.24-.82,16.66-1.29,24.91,0,30.4,5.57,34.51,37.82,82.48,29.67-16.76,3.73-33.33,2.05-47.62-8-9.1-6-17.12-13.94-27.38-17.86-14.72-5.46-33.22-1.8-48.5.22-16.28,2.24-33,5.21-49.47,2.81a48.91,48.91,0,0,1-15.9-5c-19.48-10.75-33-30.2-40.2-50.91Z"/>
      </g>
      <g>
        <path class="cls-1" d="M443.69,181c-8.54,29.65-40.55,23.58-40.55,23.58-9.42,13.57-23.94,8.67-23.94,8.67s-8.59,9.17-25.09,11.13c-25.45,3-40-6.23-50.72-2.83s-12.08,11.31-23.76,15.65-22.07-.57-35.45.94c-12.56,1.42-20.48,11-21.42,12.13,14.33-21.34,33.51-15,47.25-18.35s15.09-29,47.9-27.53c27.53,1.27,51.67-9.25,51.67-24.15,0-23-42.05-20.93-61.66-32.62-13-7.74-18.63-19.86-20.94-27.16-14.4,2.6-24.27-7.46-24.27-7.46a13.13,13.13,0,0,1-11.79,1.22c-7.27-2.57-7.81-10.88-7.81-10.88s-18.24-2.68-17.18-24.19c1-21.21,21.65-23,21.65-23s-.82-9.55,9.45-15.94,21.13,1.52,21.13,1.52,10.16-7,20.62-3.22c-.63-6.47-.06-20.45,14.16-31C335.06-9,357.32,9.57,357.32,9.57a16.15,16.15,0,0,1,15.21-1.51c8.55,3.53,11.2,12.08,11.2,12.08s18.15-2.44,31.55,11.94c15.49,16.63,4.27,39.35,4.27,39.35s9.68,18.36-5.41,31.69-33.82-.39-33.82-.39-2.9,4.65-8.29,5a11,11,0,0,1-9.43-4.41,38.18,38.18,0,0,1-5.46.86c2.46,16.57,23.18,18.79,38.55,22.46s19.91,12.83,19.91,12.83C427.66,138.75,451.24,154.78,443.69,181Z"/>
        <g>
          <path class="cls-2" d="M371.75,76.83c.65,7.89,9.3,12.32,16.52,12a23.64,23.64,0,0,0,2.78-.21c6.56-.94,11.51-6.47,12.85-12.82a17.17,17.17,0,0,0-12.53-21c-5.39-1.21-10.91.41-15.59,3.23l-.64.38-.55-.57a26.24,26.24,0,0,0-25.82-6.91,12,12,0,0,0-1.69.49,25.34,25.34,0,0,0-3.26,1.28,24,24,0,0,0-7.71,5.55c-5.89,6.69-8,16.7-6.15,25.34,4,15.13,17.35,22.1,32.33,18.4l.9-.2a11.21,11.21,0,0,0,2.12,2.37c5.06,4.19,11.6,2,14.62-3.44l1.26.85c12.72,8.42,28,8.67,36.79-5.26,4.67-7.43,3.81-17.25,0-24.87a43,43,0,0,0,4.09-18.64c.14-19.68-19.78-33.16-38.25-31.56l-.91.09-.3-.86c-3.49-10.37-15.84-16.71-25.38-9.78C346.65,2,331-1.95,318.35,4.68a37.24,37.24,0,0,0-15,13.79,34,34,0,0,0-4.53,20,33.82,33.82,0,0,1,4-20.27A38,38,0,0,1,317.88,3.76c12.77-7.07,28.85-3.49,40,5.13l-1.1,0a17,17,0,0,1,8.12-2.92c8.9-.83,17,5.7,19.87,13.87l-1.2-.77a39.94,39.94,0,0,1,35,15c6.15,8,7.4,18.88,5.27,28.56A45.5,45.5,0,0,1,420.79,72V70.78c4,8.39,4.68,18.88-.33,27-9.69,15.48-26.81,15.7-41,6.12l2.09-.4c-3.28,5-10.19,7.32-15.62,4.43a12.82,12.82,0,0,1-4.51-3.78l1.48.58a35,35,0,0,1-15.09.28c-11.46-2.4-20-13.17-21.05-24.61-.89-14,5.57-27.06,19.62-31.17,10.26-3.41,22.21-.68,29.62,7.38l-1.19-.2a26.26,26.26,0,0,1,11.05-3.67,17.21,17.21,0,0,1,3,0,18.26,18.26,0,0,1,5.73,1.42,18.76,18.76,0,0,1,9.94,10.39c3.81,10-2.17,23.41-13.35,24.75a25.38,25.38,0,0,1-2.88.15c-7.36.18-16.08-4.59-16.52-12.62Z"/>
          <path class="cls-2" d="M284.15,82.82c2-3.64.74-8.23-1.84-11.24a13.14,13.14,0,0,0-16.18-3.17A16.58,16.58,0,0,0,257,84a20.26,20.26,0,0,0,6,13c7.66,8,20.4,5.88,28.75.08,9.7,3.78,21.62,2.66,27.35-6.92a21.57,21.57,0,0,0,2.4-18.85c-1.85-5.34-5.73-10.47-10.82-13-.42-7.3-4.22-15-11.19-18-6.63-3-14.59-1.17-20.57,2.53l-.87.56-.83-.58C268.37,36.88,258,38,251.73,47A15.72,15.72,0,0,0,249,57.3a27.61,27.61,0,0,0-8.9,2.34c-7.91,3.39-12.66,11-12.9,19.62-.19,5,.53,10.11,3.23,14.41A20.5,20.5,0,0,0,244,102.49c.24,4.19,2.36,8.78,6.4,10.53a12.55,12.55,0,0,0,12.36-1l.48.45a27.93,27.93,0,0,0,38.83,0,21.57,21.57,0,0,0,6.36-12.73,21.67,21.67,0,0,1-6,13.09,29.07,29.07,0,0,1-27.27,7.84,30.53,30.53,0,0,1-13.06-7l1.05.08c-5.91,4-15,2.64-18.81-3.58a16,16,0,0,1-2.29-6.65l.87.93a22.43,22.43,0,0,1-14.47-9.41c-3-4.67-4-10.3-3.84-15.78A24.17,24.17,0,0,1,239,57.21a28.86,28.86,0,0,1,8.47-2.47l-1.23,1.48c-.36-11.47,11.18-21.71,22.5-19.78a25.36,25.36,0,0,1,10.3,4l-1.7,0c10.79-7,25.49-6.42,32.51,5.43a27,27,0,0,1,3.66,11.57l-.78-1.19a25.64,25.64,0,0,1,11.43,14.21c3.18,8.83.27,19.22-6.47,25.6-4.53,4.35-11.14,6-17.24,5.37a32.09,32.09,0,0,1-8.89-2.06l1-.09a32.87,32.87,0,0,1-11.68,4.59c-7.47,1.41-15.25-.78-20.11-6.81a22.35,22.35,0,0,1-5.12-11.4,17.89,17.89,0,0,1,10.06-18.1c5.68-2.83,13.08-1.38,16.92,3.73,2.52,3.16,3.68,7.9,1.5,11.51Z"/>
          <path class="cls-2" d="M287,120.45c3.65,11.14,11.1,21.11,21.3,27,10.32,5.65,22.21,7.37,33.49,10.39,10.73,3,25.68,6.48,28.38,19.18,3.16,19.54-24.9,27.09-39.79,28.27-5.87.66-11.8.13-17.66.31a36,36,0,0,0-16.28,4.49c-4.94,2.81-8.86,7.06-12.49,11.62-2.81,3.43-5.59,7.29-9.49,9.75s-9,2.62-13.41,3c-15.92.52-27.8,2.46-37.17,16.75l-2.19-1.79a63.27,63.27,0,0,1,8.35-6.84c4.1-2.76,8.81-5.3,13.88-5.85,12.43-1.47,25.52,3.83,37.29-1.75,8.12-3.48,12.83-12.4,21.76-14.77,5.35-1.64,11.1-.47,16.33.46A138.3,138.3,0,0,0,340,223.52c13.46.67,28.19-1.58,38.3-11.17l.57-.58.79.24a20.28,20.28,0,0,0,23-8.79c8.83,1.51,18.63.51,26.47-4.07,11.5-6.75,17.08-21.64,14.6-34.5-2.21-10.94-11-20-21.53-23.51a19,19,0,0,0-6.91-1l-.2-.38c-3-5-8.17-8.53-13.51-10.73-13.14-5.18-31.57-4.64-41-16.56a18,18,0,0,1-3.32-8.28,17.76,17.76,0,0,0,3.48,8.16c9.62,11.58,28.1,10.79,41.26,15.74,5.65,2.25,11.09,5.77,14.29,11.1l-.62-.36c9.47-.18,18.17,5.62,23.91,12.81,9.08,11.21,8.29,27.72.76,39.55-6.29,10.27-18.58,15.13-30.26,15.05a42,42,0,0,1-7-.49l1.24-.51a22.66,22.66,0,0,1-25.38,9.2l1.37-.34a43.29,43.29,0,0,1-19,10.25c-13.9,3.49-28.58,1.82-42.38-1-6.62-1.3-13.59-2.3-19.48,1.5-5.85,3.55-10.2,10-16.87,12.72-11.67,5.77-24.71,1-37,1.87-8.46.57-15.74,6.35-21.78,11.89L214,260.77c8.26-12.16,13.64-23.17,29.11-27.06,8.53-2.29,17.92-1.24,26.28-3a14.15,14.15,0,0,0,6.86-4.07c6.05-6.35,10.92-14.43,18.91-18.76,8-4.72,17.36-5.07,26.32-4.55a83.75,83.75,0,0,0,25.77-3.44c8-2.6,16.6-6.58,20.34-14.43A14.34,14.34,0,0,0,364.73,170c-6.14-6.23-15.05-8.52-23.29-10.94-5.65-1.55-11.38-2.89-17.05-4.51C305.55,149.74,293,139.28,287,120.45Z"/>
        </g>
        <path class="cls-2" d="M300.55,114.2c9.74,27,34.39,24.5,56.83,33.09,10.77,4,22.55,11.18,24.58,23.48a32,32,0,0,1-3.59,20.77C370.91,204,355.72,209,342,210.19s-27.82-3.3-41.4.39a44.49,44.49,0,0,0-12.45,5.87,41.73,41.73,0,0,1,12.3-6.37c13.47-4.24,27.69.07,41.43-1.42,17.75-1.64,37.77-10.58,38.48-30.86,1.88-26.19-30.84-31.15-50.06-36.78-13.86-3.66-25.68-12.62-29.71-26.82Z"/>
        <path class="cls-2" d="M343.62,102.22c.92,9.32,6.77,17.43,14.59,22.2,15.39,10,46.85,7.14,56,22.9l-.5-.44a42.82,42.82,0,0,1,16.92,13.2,25,25,0,0,1,4.15,20.77c-3.06,14.89-17.46,23.8-32.1,22.77,14.17.21,28-8.64,30.61-23.07,2.2-11.16-2.53-20-11.43-26.62a44.37,44.37,0,0,0-9.22-5.35l-.17-.29c-6.89-11.67-27.23-12.56-39.34-16.42-6.28-1.74-12.59-4.13-17.82-8.12-6.65-5.13-11.34-13.07-11.68-21.53Z"/>
      </g>
      <g>
        <path class="cls-1" d="M442.77,462.88c-7.63-7.86-21.39-5.12-29.38-3.9s-17.54-3.18-18.27-10.57c-.68-6.75,2.15-10.72,11.29-15s5-11.78-4.5-11.72-25.12,2.79-36.27-5-12.18-17.66-12.18-17.66c-5.18,5.86-22,6-26.65-8.27-4.13-12.59,7.11-19.3,7.11-19.3s-8.2-9.25-.3-21.21S357,343.51,357,343.51a19.71,19.71,0,0,1,10.17-4.71c16.46-2.88,23.87,13,23.87,13s4.45-4.19,10.3-2.18c6.65,2.28,6.45,10,6.45,10s12.14.43,13.24,12.66-11.1,14.59-11.1,14.59c-1.16,3.77-7.92,8.82-15.92,6.37.4,8.46,7.46,12.37,19.23,13.9,10.51,1.37,13.73,8.54,13.73,8.54,7.28,4.06,7.08,19-1.42,24.9-10,6.94-19.21,3.46-19.5,9.4-.25,4.94,11.11,4.89,15.17,4.9C438.28,455,442.77,462.88,442.77,462.88Z"/>
        <g>
          <path class="cls-2" d="M396.15,382a5.71,5.71,0,0,0,7.18-.75,7.49,7.49,0,0,0-.79-11.2,10.72,10.72,0,0,0-9.54-2c-6.64,1.9-9.71,10.16-7.42,16.36s9.89,9.82,16.13,7.9c3.14-.93,6.44-3.24,7.3-6.43,3.92-.88,7.77-3.21,9.6-6.84a13.73,13.73,0,0,0-.06-11.09c-2-4.72-7.35-7-12.2-7.08a12.16,12.16,0,0,0-1.29-6.32c-2.47-4.81-9.32-5.15-13.07-1.7l-1.45,1.27c-5.26-11.48-16.42-17.55-28.49-12.23-6.42,2.86-10,9.94-9.88,16.77-19.19,3.91-18.65,33.45.56,36.81,5.54,1.07,11.61.34,16.3-2.8,10-6.95,9.3-23.31-3.64-26.31a11.24,11.24,0,0,0-8.2,1.3c-5,2.77-6.31,11-1.54,14.64,2.28,1.63,6.09,1.88,8-.41a5.13,5.13,0,0,1-3.93,1.85,7,7,0,0,1-7.08-4.7,10.27,10.27,0,0,1,4-12.18c7.48-5,18.43.33,20.42,8.77a18.08,18.08,0,0,1-6.93,18.69c-6.49,4.47-15.15,4.89-22.41,2.22A19.76,19.76,0,0,1,337.63,387c-5.28-10.91-1.4-25.53,10.47-30a15.79,15.79,0,0,1,2.35-.78l-1.14,1.42c.17-8.25,5.25-16.37,13.23-19a22.54,22.54,0,0,1,19.89,1.73,28.14,28.14,0,0,1,9.88,10.94l-2.32-.45a12.92,12.92,0,0,1,6-2.92c7.43-1.36,13.23,4.49,13.12,11.81l-1.34-1.43c5.49.41,11,3.48,13.18,8.7,3,6.91,1.06,15.37-5.84,19.07a18.32,18.32,0,0,1-5,2l.86-.78c-3.1,7.41-13,9.48-19.65,6-9.05-4.05-10.8-17-3.44-23.5,4.05-3.93,11-3.87,15.17-.19,3.66,2.86,4.13,9,.51,12.05a5.89,5.89,0,0,1-7.4.5Z"/>
          <path class="cls-2" d="M357,343.51c-7.62-2.15-17.05-1-22,5.67-5.27,6.64-5.73,16.07.05,22.46-8.48,5.32-10.72,15.1-5,23.42,4.66,7,16.39,9.2,22.59,3.22l1.67-1.89c.76,8.54,6.6,16.05,13.86,20.33a32.71,32.71,0,0,0,13.26,3.86c6.27.62,12.61,0,19.12-.26,3.25-.17,7.09.16,10.11,2.61a5.86,5.86,0,0,1,1,8.38c-1.63,2.18-4.15,3.2-6.46,4.37-5.7,2.82-9.82,6.77-8.43,13.47,2,7.37,11.53,9.63,18.29,8.14,9.53-1.45,21.19-2.9,28.7,4.67l-2.19,1.4c-1.59-3.12-4.88-5-8.16-6.1-7.37-2.53-15.46.08-23-2.05-3.67-.85-7.09-3.63-4.79-7.7a5.43,5.43,0,0,1,2.9-2.06c3.88-1.18,7.56-1.39,11.23-2.9,3.39-1.37,6.77-3.26,8.8-6.41a17.23,17.23,0,0,0,1.55-15.91,8.68,8.68,0,0,0-3.65-4.12c-2.32-4.73-7.5-7.63-12.6-8.47-5.26-.81-10.82-1.84-15.2-5.12a11.8,11.8,0,0,1-4.67-9.33,12.42,12.42,0,0,0,1.4,5.11c2.64,4.8,8.26,6.65,13.33,7.7,3.51.72,7.21.75,10.55,2.23a16.57,16.57,0,0,1,8.27,7.16l-.27-.3c8.95,5.5,6.64,21.13-1.5,26.42a30.87,30.87,0,0,1-11,4.61c-2.46.76-5.66.64-7.28,2.56-2.09,4.37,6.29,4.78,9,5a45.22,45.22,0,0,0,5.69-.13c7.38-.38,16.25.89,20.95,7.34,1,1.31,3,6.63,3.69,8.08l-5-5.14c-4.31-4.43-10.93-5.18-16.92-4.86-4.81.12-9.61,1.51-14.46,1.65-7.19,0-16-4.18-16.8-12.18C392.45,439.75,399,435.12,406,432c5.89-2.69,5.1-7.19-1-8.57a17.51,17.51,0,0,0-4.46-.29c-6.34.21-12.89.82-19.46.14s-13.32-2.8-18.42-7.17-9.27-10-10.41-16.91l2.09.67c-5.48,5.38-14.47,5-20.71,1.32a18.64,18.64,0,0,1-8.3-18.86,16.78,16.78,0,0,1,3-6.56,19.51,19.51,0,0,1,5.23-4.89l-.17,1.09c-5.51-6.85-4.59-16.77.94-23.27,5.3-6.74,14.95-7.68,22.64-5.18Z"/>
        </g>
        <path class="cls-2" d="M361.72,396.7c3.11,11.65,13.16,16.66,24.52,17.49,9.3,1.32,27.67-.64,26.52,13.5-.33-10.26-10.5-10.47-18.43-10.92-5.55-.33-11.19-.56-16.6-2.15-8.2-2.17-15.21-9.44-16-17.92Z"/>
        <path class="cls-2" d="M425.86,415c5,7.3,4,16.77-3.46,22a22.68,22.68,0,0,1-7.59,3.33c-3.72,1.12-7.79,1.37-10.87,3.68a5.07,5.07,0,0,0-1.24,6.25c2.16,3.21,6.39,4.34,10.06,5.19-3.95-.25-8.55-1.1-11.16-4.48a6.48,6.48,0,0,1,1.17-8.27c5.38-4.28,13.08-3.33,18.58-7.18,7.1-4.68,8.18-13.22,4.51-20.54Z"/>
      </g>
      <g>
        <path class="cls-1" d="M275.17,431.45a34.27,34.27,0,0,1-1.81,4.87c-9.18,20.24-41.71,20.24-53.7,1.21a30.94,30.94,0,0,1-26.75,11.41,25.69,25.69,0,0,1-21.54-14.76s-13.75,8.74-30.55,4.16c-25-6.84-31.69-22-47.17-19.62C70.51,422.29,64.47,438.2,45,438.2c-14.2,0-20.74-16.7-33.19-16.47a25,25,0,0,0-10.87,2.4c.65-.54,6.76-5.34,18-4.16,12,1.26,15.72,9.06,25.52,9.06C55.8,429,63.12,404.9,90,399.25c23.39-4.93,38.62,9.56,47.81,10.74a17.15,17.15,0,0,0,14.53-5s-8.21,5.52-18.45-.17S123,386.31,129,378.34c6.49-8.5,17.61-6.37,17.61-6.37s-.23-28.48,31-38.9c30.17-10.06,55.32,9.68,61,32.87,0,0,4.87-3.19,10.24-1.18a9.81,9.81,0,0,1,6,7.55s29-7.93,40.29,15.21C306.4,410.5,287.46,429.52,275.17,431.45Z"/>
        <g>
          <path class="cls-2" d="M195.77,393.1c.12,8.82-9.52,13.13-17.25,12.35-13.14-1.22-19.78-17.06-12.61-27.79,7.47-11.55,22-11.51,32.39-3.89l-.88-.09c5.66-2.25,12.13-2.55,17.72.05,11.11,5.4,16.16,20.1,11,31.28-5,11.23-16.56,18.07-28.31,20a58.43,58.43,0,0,1-13.35.42c-7.37-.71-14.87-2.54-21.19-6.63A32.14,32.14,0,0,1,151,405.53l2.1.65c-11,6.84-27.49-.22-29.21-13.35-1.88-13.9,9.15-24.53,23-22.28L145.18,372c1.16-24.35,21.19-40.8,44.59-42.75,22.87-2.23,44.73,14.28,49.95,36.45l-1.61-.63c6.88-4.26,16.47-1.4,17.78,7.15l-1.18-.79c8.53-1.9,17.55-1.89,25.74,1.31,10.4,3.89,17.14,14.34,18.43,25.09s-3.93,21.78-12.45,28.35a25,25,0,0,1-11.52,5.34c8.41-1.64,15.26-8.07,19.42-15.3,6.5-11.05,4.3-25.79-4.21-35.13-8.65-9.5-23.05-10.71-34.92-7.86l-1,.25-.18-1c-1.23-7.06-9.11-9.13-14.76-5.6l-1.25.76A46.73,46.73,0,0,0,220,340.32a44.14,44.14,0,0,0-30-8.44c-15.72,1.35-31.52,10.13-38.14,24.89a39.92,39.92,0,0,0-3.78,16.91c-12.49-2.7-22.69,5.78-21.22,18.71,1.64,11.86,16.67,17.44,26.13,10.57l.68,1.52a29.67,29.67,0,0,0,11.12,11.95c5.83,3.83,13,5.62,19.95,6.3a57.32,57.32,0,0,0,12.7-.34c10.94-1.71,21.84-8.05,26.55-18.34,4.82-10.06.26-23.56-9.68-28.53-4.93-2.41-11-2.19-16.15-.22l-.48.18-.4-.27c-9.6-7.24-23.11-7.49-30.3,3.14-7,10.06-.83,25.15,11.62,26.53,7.56.91,17.11-3.1,17.19-11.78Z"/>
          <path class="cls-2" d="M256.72,418.76c-.88,7.81-12.15,10.52-17.5,5.36-7.57-6.68-4.1-19.26,4.06-23.87,12.62-6.95,27.08.55,32.2,13.27,3.55,8.83,1.62,19.11-3.36,27-12.25,17.79-42.33,15.6-53.54-2.28l2.12.06a29.68,29.68,0,0,1-5.38,5.31c-9.85,7.74-24.6,9.25-35.34,2.46a27.37,27.37,0,0,1-9.9-11.35l2,.65A42.88,42.88,0,0,1,149,441c-6-.19-11.79-2.11-17.32-4.24-9.09-3.49-17-9.69-25.35-14.31A20.37,20.37,0,0,0,95.93,420a25.8,25.8,0,0,0-2.71.3,51.87,51.87,0,0,0-18.43,6.9c-9.57,5.81-17.7,12.47-29.67,12.38-14.36.32-21-16.16-33-16.53a24.44,24.44,0,0,0-10.61,2.25l-1.48-2A22.36,22.36,0,0,1,10.23,419a31,31,0,0,1,21,3.94c3.85,2.19,7.3,4.49,11.58,5,6.18.91,10.33-4.59,14.39-8.54C62,414.29,67,409.22,73,405.42c15.07-10.06,34.84-9.77,50.58-1.59,4.77,2.09,9.26,5.05,14.42,6a17.12,17.12,0,0,0,14.32-4.8A17.37,17.37,0,0,1,138,410.2c-5.25-.8-9.85-3.73-14.66-5.73-15.64-7.78-34.86-7.65-49.42,2.3-5.83,3.79-10.68,8.79-15.41,13.87-7.52,8.17-12.56,12.54-23.75,6.79-4.51-2.48-8.95-5.28-14-6-6.46-1-13.68-.27-19,3.74L.21,423.08a26.71,26.71,0,0,1,11.89-2.63c4.21,0,8.14,2,11.4,4.37,6.07,4.42,11.37,10.63,18.94,11.83a28.1,28.1,0,0,0,10.9-1c11.11-3.35,19.55-12.52,30.73-16a52.42,52.42,0,0,1,8.66-2.23,27.8,27.8,0,0,1,3.06-.35c8.24-.59,15.44,4.68,22,8.88A81.73,81.73,0,0,0,138.17,436,39.44,39.44,0,0,0,172,432.18a24,24,0,0,0,4.33,7.11c10.83,12.79,32.43,10.18,42.28-2.5l1.15-1.47,1,1.53c9.41,15,33.14,18.42,46.33,6.51,5.2-4.78,7.89-11.94,8.45-18.87,1.23-14.21-12.16-28.61-26.77-25.18a16.76,16.76,0,0,0-7.14,3.33c-6.25,4.82-8.35,15.47-2.05,21.1,5.13,5.11,16.16,2.62,17.16-5Z"/>
        </g>
        <path class="cls-2" d="M162.36,416.52c-11.14,6.18-23.7,6.34-35.35,1.35-8.47-3.31-16.09-8.35-24.89-10.53s-17.7.8-25.08,5.49c-5,3.17-9.31,7.41-13.88,11.43s-10.22,7.79-16.55,7.29a26.92,26.92,0,0,1-16.47-7.21C37,429.81,47,433,55.06,428.49a36.9,36.9,0,0,0,7.07-5.38c45.76-46.86,56.84,12.52,100.23-6.59Z"/>
      </g>
      <g>
        <path class="cls-1" d="M450.11,286.35c-.32.36-5.78,6.06-16.21,6.06-14.17,0-27.28-15.09-43.89-10.08s-29,13.86-45.22,11.9c-15.05-1.82-18.77-10.7-18.77-10.7s-5.61,5.09-15.69,4.78c-7-.21-18.19-5.76-17.27-19.1a17.7,17.7,0,0,1,12.42-16.3c-.7-9.19,4.07-13.49,9.53-15.29a11.22,11.22,0,0,1,7.66.43,8.88,8.88,0,0,1,5.29-6.37c6.75-3,11.41,3.27,11.41,3.27s10.38-4.94,20,2.12,11.59,19.56,3.51,29.85a14.79,14.79,0,0,1-6.82,4.95,12,12,0,0,0,5.43.64c7.43-.49,20.81-8,37.26-4.82s27.42,20.85,35.29,22.22C441.73,291.24,449.68,286.6,450.11,286.35Z"/>
        <g>
          <path class="cls-2" d="M349.07,250.86c-7.29-1.2-11.81,5.4-10.23,12.09,1.42,6.08,8.68,9.15,14.43,8.22a14,14,0,0,0,9.57-6.68,19.08,19.08,0,0,0-17-30,22,22,0,0,0-6.8,1.6c-2-2.87-5.52-5.14-9.14-4.42a8.85,8.85,0,0,0-7.28,6.74,9.17,9.17,0,0,1,7.05-7.8c3.87-1.06,7.87.85,10.41,3.82l-1.12-.27c13.73-6.5,30,3.55,30.4,18.72a23,23,0,0,1-9,18.4,16.12,16.12,0,0,1-19.85-1.74c-7.42-6.84-2.41-21.61,8.57-18.64Z"/>
          <path class="cls-2" d="M316.21,251c.58,5.85,8.77,5.76,11.64,1.75,4.81-6.92-2.05-15.16-9.64-15a12.48,12.48,0,0,0-11.06,7.9,16.75,16.75,0,0,0-.79,7.16l.05.69-.71.23A16.68,16.68,0,0,0,295,264.64c-5.64,20.26,17.69,29.06,31.53,16.76,2.16,5.45,7.55,8.82,13,10.35,10.62,3.11,21.52.27,31.52-3.9,5.75-2.3,11.63-4.79,17.65-6.64a27,27,0,0,1,13-.88c11.49,1.82,21.46,11,33.22,10.73a21.69,21.69,0,0,0,14.25-5.56l1.59,1.93a33,33,0,0,1-6.21,2.63c-3.77,1.14-8,1.75-11.85.64-2.71-.95-5-2.87-7.08-4.61-9.61-8.57-18.95-17.91-32.59-18.46-8.6-.71-17,1.55-25.28,3.84-3.11.83-6.39,1.56-9.63,1a6.67,6.67,0,0,1-3-1.15c1.81,1.21,4.14,1.19,6.23,1.06,6.41-.87,12.37-3.69,18.77-4.85,21.82-4.48,31.35,3.37,46.82,17,2.44,1.89,4.75,4,7.83,4.36,8.14,1.11,16-4.38,22.65-8.26l-6.37,6.58c-4.25,4.23-10.16,6.24-16,6.49-10.17.4-18.77-5.86-28-9a29.27,29.27,0,0,0-11.7-1.82l-2,.19-2.86.66c-14.27,4.22-27.8,13.06-43.27,12.16-8.57-.53-18.24-3.69-22.48-11.79l2.14.47c-12.26,9.63-33.21,5.45-34.91-11.76-.94-9,4.28-18.14,13.25-20.71l-.66.92a18.58,18.58,0,0,1,1-7.87,13.73,13.73,0,0,1,12.58-8.57c8.29,0,15.51,9.18,10.07,16.57-3.08,4.16-11.7,3.92-12.08-2.11Z"/>
        </g>
        <path class="cls-2" d="M344.73,271.13c2.35,3.16,5.35,6.08,9.21,7.13,9.84,2.51,19.6-2.16,29-4.73a45.41,45.41,0,0,1,18.35-.8c12.14,3,20,13.67,31.34,18.24-7.71-2.41-14.22-7.6-21-11.77-4.24-2.58-8.63-4.81-13.57-4.94a49.41,49.41,0,0,0-20.37,2.84c-11.51,3.62-26,6.83-32.95-6Z"/>
      </g>
      <g>
        <path class="cls-1" d="M195.14,78.52c-4.92,29.69-33.61,23.73-33.61,23.73S152.66,113,138.74,110c-12.68-2.79-15.62-13.15-16-15A19,19,0,0,1,106.3,96C96.2,91.85,94.16,84.23,94.16,84.23,81.7,77.54,69.81,90.8,53.55,88c-15.5-2.74-22-19.67-22.59-21.24C31.58,68,36.9,77.86,48.88,78c11.74.1,14.19-7.77,27.46-13.88C83.89,60.64,94.75,63,94.75,63s-2.36-6.62,4.66-12.75A15.64,15.64,0,0,1,114.35,47c7.26-22.24,33.45-27.41,49.48-12.69a30.23,30.23,0,0,1,7.53,10.56C175.57,46.1,199.18,54,195.14,78.52Z"/>
        <g>
          <path class="cls-2" d="M146.94,54.12c-7.54-1.28-15.64,3.63-17.05,11.29-2.56,12,9.52,21.16,20.77,19,11.1-1.87,19.64-11.72,21.45-22.61,2.95-14.79-7.47-29.88-21.87-33.44-15.59-4.13-30.77,5.12-35,20.53a15,15,0,0,0-8.14-.83c-6.38,1.17-12.71,7.67-11,14.44l.76,2.39-2.44-.48c-14.38-2.79-20.88,1.9-31.9,10.19-11.72,8.77-25.28,4.71-32.71-7.36l2.26-1C35.7,75.7,43.2,85,53.69,87c7.59,1.48,15-1,22.24-3.36,5.94-2,13-3.22,18.7.23,1.81,5.8,7.13,10.11,12.71,12.26a19.26,19.26,0,0,0,17.43-2.45c-8,6-18.3,4.91-25.72-1.6a18.5,18.5,0,0,1-5.43-7.69l.28.35a15.79,15.79,0,0,0-8.65-1.66c-9.22,1-17.63,6.39-27.12,6.24-13.39.35-23.88-10.5-28.4-22.29L25.44,55.86,32,66C36.62,73.27,44.66,78.45,53.4,76.1c5.74-1.35,10-5.91,14.89-9.08,5.08-3.51,11.18-6.36,17.45-6.24a44.28,44.28,0,0,1,9.31.76l-1.68,1.92a10.75,10.75,0,0,1-.29-1.15C91.27,50.92,104.52,42,114.85,45.67l-1.89.92a31.2,31.2,0,0,1,38-20.83c15.74,4,26.78,20.34,23.32,36.41a30.65,30.65,0,0,1-12.45,19.42c-10,7.07-24.62,6.34-31.1-4.93-6.28-11.67,3.13-25,16.25-22.54Z"/>
          <path class="cls-2" d="M111.7,73.23c-1.37,6.63,2,14.23,7.61,17.94,4.51,2.72,10.29,2.82,15.19,1.11a17,17,0,0,0,9-8,15.33,15.33,0,0,1-8.42,9.46A19.32,19.32,0,0,1,123.71,95a15.07,15.07,0,0,1-3.22-1c-.74-.32-1.51-.81-2.23-1.19-5.91-4-9.41-12.9-6.56-19.58Z"/>
          <path class="cls-2" d="M122.64,94.67c5.16,16.85,26.85,19.5,37.84,6.71l.5-.59.83.12c10.78,1.73,23.1-1.82,28.38-12,7.43-14.51,5.16-30-9.14-39.18a44,44,0,0,0-10.31-5c7.57,1.73,14.9,5.54,20,11.57,8.12,9.39,7.49,23.48,2,34.05-3.75,7.31-11.39,12.25-19.44,13.36a35.29,35.29,0,0,1-12-.12l1.33-.47a26.44,26.44,0,0,1-10.58,7c-12,4.48-27.15-2.4-29.36-15.49Z"/>
          <path class="cls-2" d="M36.87,74.56c4,3,8,6.16,12.83,7.46,8.12,2,16.54-1,23.73-4.71C86.6,70.24,99,69.22,111.14,79.05,102.78,72.87,92.9,70.87,83,74.23a54.4,54.4,0,0,0-9.1,4C66.57,82,57.79,85,49.53,82.62c-4.9-1.43-8.84-4.86-12.66-8.06Z"/>
        </g>
      </g>
    </g>
  </g>
</svg>
