<svg xmlns="http://www.w3.org/2000/svg" viewBox="0 0 557.77 114.13">
  <defs>
    <style>
      .cls-1 {
        fill: #013278;
      }
    </style>
  </defs>
  <g id="Layer_2" data-name="Layer 2">
    <g id="Graphic_elements" data-name="Graphic elements">
      <g>
        <path class="cls-1" d="M540.82,72.36C531,69.57,523,63.44,515.29,57.51c-5.12-3.93-10-7.64-15.3-10.47-13.92-7.38-26.83-10.16-38.39-8.26C454.11,40,447,44.67,438.52,53.91a2.92,2.92,0,0,1-.28.21,13.13,13.13,0,0,1-4.55,7.7,10.78,10.78,0,0,1-9.05,2.24c-3.94-.79-6.36-3.47-6.17-6.83a2.82,2.82,0,1,1,5.64.33c0,.39.84.8,1.65,1a5.16,5.16,0,0,0,4.38-1.09,7.67,7.67,0,0,0,2.71-5.78,11.55,11.55,0,0,0-5.75-10.6c-6.18-3.83-16.54-4-23.58-.39-5.93,3-10.8,8-16,13.24a98.91,98.91,0,0,1-12.06,11c-11.27,8.18-23.29,12.42-35.71,12.61-14.22.21-25.94-4.78-38.32-10.08-2.56-1.09-5.15-2.2-7.78-3.26a227.93,227.93,0,0,0-34.15-10.91,198.85,198.85,0,0,0-109.92,5C134.87,63.22,120.19,69.45,106,75.47c-7,3-14.26,6-21.37,8.91a163.39,163.39,0,0,1-23.73,7.54A124,124,0,0,1,33,95.31a90.72,90.72,0,0,1-21.88-2.56l-.14,0c21.71,8.68,43.21,11.47,65.3,8.51,21.88-2.93,44-9.2,65.42-15.26,9.77-2.76,19.87-5.62,29.82-8.13,60.52-15.25,106-11.6,139,11.15,24.77,17,51.6,32.73,83.3,21.18,11.07-4,20.41-10.77,30.31-17.92,7-5,14.15-10.21,21.94-14.3C465,68,488.45,66.8,510.48,74.62c1.52.54,3.08,1.12,4.67,1.71,12.77,4.75,26,9.66,36.79,1.41a30.65,30.65,0,0,0,5.83-5.83A28,28,0,0,1,540.82,72.36Z"/>
        <path class="cls-1" d="M57.91,77.71a181.77,181.77,0,0,1-45.58,6c-4.14,0-8.25-.17-12.33-.47a108.19,108.19,0,0,0,12.43,4.06c14,3.46,29.82,3.18,47.18-.85a156.84,156.84,0,0,0,22.9-7.27c7.07-2.84,14.29-5.91,21.27-8.87,14.3-6.07,29.09-12.34,44-17.35a204.61,204.61,0,0,1,113-5.18,234.17,234.17,0,0,1,35,11.18c2.66,1.08,5.28,2.2,7.88,3.31,11.81,5.05,23,9.83,36,9.62a52.74,52.74,0,0,0,21.49-5.06,3,3,0,0,1,.48-.3c10.12-5.06,15.47-22.19,14.57-31.3a42.82,42.82,0,0,0-5.06-17c-6.81-12-21.28-19.38-35.14-18-12.45,1.25-23.54,12.58-24.23,24.74-.39,7,1.71,13.62,5.64,17.77,3.29,3.48,7.79,5.25,13.39,5.25a3,3,0,0,1,1,.2c5.07-1.58,9.46-4.44,10.95-8.8a11.38,11.38,0,0,0-2.42-10.42,8,8,0,0,0-5.91-1.64c-1.25.22-1.5.82-1.61,1.07a2.82,2.82,0,1,1-5.2-2.2,7.47,7.47,0,0,1,5.81-4.44c3.78-.67,8.62.78,11,3.32,3.84,4.07,5.41,11,3.66,16.14-4.12,12-21.24,15.36-31.52,13.79-8.23-1.25-15.6-5.06-22.73-8.74-2.87-1.49-5.58-2.89-8.34-4.13-13.42-6-23.9-9.94-34-12.68a180.94,180.94,0,0,0-82-3.24c-21.28,3.91-39.21,14.68-58.2,26.08C94.76,62.26,77.49,72.62,57.91,77.71Z"/>
      </g>
    </g>
  </g>
</svg>
