<svg xmlns="http://www.w3.org/2000/svg" viewBox="0 0 218.66 209.75">
  <defs>
    <style>
      .cls-1 {
        fill: #fc253c;
      }

      .cls-2 {
        fill: #fec448;
      }

      .cls-3 {
        fill: #230f36;
      }

      .cls-4 {
        fill: #44a04d;
      }
    </style>
  </defs>
  <g id="Layer_2" data-name="Layer 2">
    <g id="OBJECTS">
      <g>
        <polygon class="cls-1" points="174.82 42.9 192.58 49.65 185.82 31.9 174.82 42.9"/>
        <polygon class="cls-2" points="179.67 41.93 188.04 45.12 184.86 36.75 179.67 41.93"/>
        <polygon class="cls-2" points="201.26 40.27 192.89 37.08 196.07 45.45 201.26 40.27"/>
        <polygon class="cls-1" points="161.83 55.89 179.58 62.65 172.83 44.89 161.83 55.89"/>
        <polygon class="cls-2" points="166.68 54.93 175.05 58.11 171.86 49.74 166.68 54.93"/>
        <polygon class="cls-3" points="193.12 52.3 175.36 45.54 182.12 63.3 193.12 52.3"/>
        <polygon class="cls-2" points="188.26 53.26 179.9 50.08 183.08 58.44 188.26 53.26"/>
        <polygon class="cls-1" points="148.84 68.88 166.59 75.64 159.84 57.88 148.84 68.88"/>
        <polygon class="cls-2" points="153.69 67.92 162.05 71.1 158.87 62.74 153.69 67.92"/>
        <polygon class="cls-3" points="180.12 65.29 162.37 58.53 169.12 76.29 180.12 65.29"/>
        <polygon class="cls-2" points="175.27 66.25 166.9 63.07 170.09 71.44 175.27 66.25"/>
        <polygon class="cls-1" points="135.84 81.88 153.6 88.63 146.84 70.88 135.84 81.88"/>
        <polygon class="cls-2" points="140.69 80.91 149.06 84.09 145.88 75.73 140.69 80.91"/>
        <polygon class="cls-3" points="167.13 78.28 149.37 71.53 156.13 89.28 167.13 78.28"/>
        <polygon class="cls-2" points="162.28 79.25 153.91 76.06 157.09 84.43 162.28 79.25"/>
        <polygon class="cls-1" points="122.85 94.87 140.6 101.63 133.85 83.87 122.85 94.87"/>
        <polygon class="cls-2" points="127.7 93.91 136.07 97.09 132.88 88.72 127.7 93.91"/>
        <polygon class="cls-3" points="154.14 91.28 136.38 84.52 143.14 102.28 154.14 91.28"/>
        <polygon class="cls-2" points="149.28 92.24 140.92 89.06 144.1 97.42 149.28 92.24"/>
        <polygon class="cls-1" points="109.86 107.86 127.61 114.62 120.86 96.86 109.86 107.86"/>
        <polygon class="cls-2" points="114.71 106.9 123.08 110.08 119.89 101.72 114.71 106.9"/>
        <polygon class="cls-3" points="141.14 104.27 123.39 97.51 130.14 115.27 141.14 104.27"/>
        <polygon class="cls-2" points="136.29 105.23 127.92 102.05 131.11 110.42 136.29 105.23"/>
        <polygon class="cls-1" points="96.86 120.86 114.62 127.61 107.86 109.86 96.86 120.86"/>
        <polygon class="cls-2" points="101.72 119.89 110.08 123.08 106.9 114.71 101.72 119.89"/>
        <polygon class="cls-3" points="128.15 117.26 110.39 110.5 117.15 128.26 128.15 117.26"/>
        <polygon class="cls-2" points="123.3 118.23 114.93 115.04 118.11 123.41 123.3 118.23"/>
        <polygon class="cls-1" points="83.87 133.85 101.63 140.6 94.87 122.85 83.87 133.85"/>
        <polygon class="cls-2" points="88.72 132.88 97.09 136.07 93.91 127.7 88.72 132.88"/>
        <polygon class="cls-3" points="115.16 130.25 97.4 123.5 104.16 141.25 115.16 130.25"/>
        <polygon class="cls-2" points="110.31 131.22 101.94 128.03 105.12 136.4 110.31 131.22"/>
        <polygon class="cls-1" points="70.88 146.84 88.63 153.6 81.88 135.84 70.88 146.84"/>
        <polygon class="cls-2" points="75.73 145.88 84.09 149.06 80.91 140.69 75.73 145.88"/>
        <polygon class="cls-3" points="102.17 143.25 84.41 136.49 91.17 154.25 102.17 143.25"/>
        <polygon class="cls-2" points="97.31 144.21 88.95 141.03 92.13 149.4 97.31 144.21"/>
        <polygon class="cls-1" points="57.88 159.84 75.64 166.59 68.88 148.84 57.88 159.84"/>
        <polygon class="cls-2" points="62.74 158.87 71.1 162.05 67.92 153.69 62.74 158.87"/>
        <polygon class="cls-3" points="89.17 156.24 71.42 149.48 78.17 167.24 89.17 156.24"/>
        <polygon class="cls-2" points="84.32 157.21 75.95 154.02 79.14 162.39 84.32 157.21"/>
        <polygon class="cls-1" points="44.89 172.83 62.65 179.58 55.89 161.83 44.89 172.83"/>
        <polygon class="cls-2" points="49.74 171.86 58.11 175.05 54.93 166.68 49.74 171.86"/>
        <polygon class="cls-3" points="76.18 169.23 58.42 162.48 65.18 180.23 76.18 169.23"/>
        <polygon class="cls-2" points="71.33 170.2 62.96 167.01 66.14 175.38 71.33 170.2"/>
        <polygon class="cls-1" points="31.9 185.82 49.65 192.58 42.9 174.82 31.9 185.82"/>
        <polygon class="cls-2" points="36.75 184.86 45.12 188.04 41.93 179.67 36.75 184.86"/>
        <polygon class="cls-3" points="63.19 182.23 45.43 175.47 52.19 193.23 63.19 182.23"/>
        <polygon class="cls-2" points="58.33 183.19 49.97 180.01 53.15 188.37 58.33 183.19"/>
        <polygon class="cls-1" points="142.92 11 160.68 17.76 153.92 0 142.92 11"/>
        <polygon class="cls-2" points="147.78 10.04 156.14 13.22 152.96 4.85 147.78 10.04"/>
        <polygon class="cls-2" points="169.36 8.37 160.99 5.19 164.18 13.55 169.36 8.37"/>
        <polygon class="cls-1" points="129.93 23.99 147.69 30.75 140.93 12.99 129.93 23.99"/>
        <polygon class="cls-2" points="134.78 23.03 143.15 26.21 139.97 17.85 134.78 23.03"/>
        <polygon class="cls-3" points="161.22 20.4 143.46 13.64 150.22 31.4 161.22 20.4"/>
        <polygon class="cls-2" points="156.37 21.36 148 18.18 151.18 26.55 156.37 21.36"/>
        <polygon class="cls-1" points="116.94 36.99 134.69 43.74 127.94 25.99 116.94 36.99"/>
        <polygon class="cls-2" points="121.79 36.02 130.16 39.21 126.97 30.84 121.79 36.02"/>
        <polygon class="cls-3" points="148.23 33.39 130.47 26.64 137.23 44.39 148.23 33.39"/>
        <polygon class="cls-2" points="143.37 34.36 135.01 31.17 138.19 39.54 143.37 34.36"/>
        <polygon class="cls-1" points="103.94 49.98 121.7 56.74 114.94 38.98 103.94 49.98"/>
        <polygon class="cls-2" points="108.8 49.02 117.16 52.2 113.98 43.83 108.8 49.02"/>
        <polygon class="cls-3" points="135.23 46.38 117.48 39.63 124.23 57.38 135.23 46.38"/>
        <polygon class="cls-2" points="130.38 47.35 122.01 44.17 125.2 52.53 130.38 47.35"/>
        <polygon class="cls-1" points="90.95 62.97 108.71 69.73 101.95 51.97 90.95 62.97"/>
        <polygon class="cls-2" points="95.81 62.01 104.17 65.19 100.99 56.83 95.81 62.01"/>
        <polygon class="cls-3" points="122.24 59.38 104.48 52.62 111.24 70.38 122.24 59.38"/>
        <polygon class="cls-2" points="117.39 60.34 109.02 57.16 112.2 65.53 117.39 60.34"/>
        <polygon class="cls-1" points="77.96 75.97 95.72 82.72 88.96 64.97 77.96 75.97"/>
        <polygon class="cls-2" points="82.81 75 91.18 78.19 87.99 69.82 82.81 75"/>
        <polygon class="cls-3" points="109.25 72.37 91.49 65.61 98.25 83.37 109.25 72.37"/>
        <polygon class="cls-2" points="104.39 73.34 96.03 70.15 99.21 78.52 104.39 73.34"/>
        <polygon class="cls-1" points="64.97 88.96 82.72 95.72 75.97 77.96 64.97 88.96"/>
        <polygon class="cls-2" points="69.82 87.99 78.19 91.18 75 82.81 69.82 87.99"/>
        <polygon class="cls-3" points="96.25 85.36 78.5 78.61 85.25 96.36 96.25 85.36"/>
        <polygon class="cls-2" points="91.4 86.33 83.03 83.14 86.22 91.51 91.4 86.33"/>
        <polygon class="cls-1" points="51.97 101.95 69.73 108.71 62.97 90.95 51.97 101.95"/>
        <polygon class="cls-2" points="56.83 100.99 65.19 104.17 62.01 95.81 56.83 100.99"/>
        <polygon class="cls-3" points="83.26 98.36 65.5 91.6 72.26 109.36 83.26 98.36"/>
        <polygon class="cls-2" points="78.41 99.32 70.04 96.14 73.22 104.5 78.41 99.32"/>
        <polygon class="cls-1" points="38.98 114.94 56.74 121.7 49.98 103.94 38.98 114.94"/>
        <polygon class="cls-2" points="43.83 113.98 52.2 117.16 49.02 108.8 43.83 113.98"/>
        <polygon class="cls-3" points="70.27 111.35 52.51 104.59 59.27 122.35 70.27 111.35"/>
        <polygon class="cls-2" points="65.42 112.31 57.05 109.13 60.23 117.5 65.42 112.31"/>
        <polygon class="cls-1" points="25.99 127.94 43.74 134.69 36.99 116.94 25.99 127.94"/>
        <polygon class="cls-2" points="30.84 126.97 39.2 130.16 36.02 121.79 30.84 126.97"/>
        <polygon class="cls-3" points="57.27 124.34 39.52 117.59 46.27 135.34 57.27 124.34"/>
        <polygon class="cls-2" points="52.42 125.31 44.06 122.13 47.24 130.49 52.42 125.31"/>
        <polygon class="cls-1" points="12.99 140.93 30.75 147.69 23.99 129.93 12.99 140.93"/>
        <polygon class="cls-2" points="17.85 139.97 26.21 143.15 23.03 134.78 17.85 139.97"/>
        <polygon class="cls-3" points="44.28 137.34 26.52 130.58 33.28 148.34 44.28 137.34"/>
        <polygon class="cls-2" points="39.43 138.3 31.06 135.12 34.25 143.48 39.43 138.3"/>
        <polygon class="cls-1" points="0 153.92 17.76 160.68 11 142.92 0 153.92"/>
        <polygon class="cls-2" points="4.85 152.96 13.22 156.14 10.04 147.78 4.85 152.96"/>
        <polygon class="cls-3" points="31.29 150.33 13.53 143.57 20.29 161.33 31.29 150.33"/>
        <polygon class="cls-2" points="26.44 151.29 18.07 148.11 21.25 156.48 26.44 151.29"/>
        <g>
          <polygon class="cls-4" points="53.13 193.46 68.06 194.82 66.7 179.89 53.13 193.46"/>
          <polygon class="cls-4" points="82.98 196.18 68.06 194.82 69.42 209.75 82.98 196.18"/>
        </g>
        <circle class="cls-2" cx="74.84" cy="188.03" r="5.76"/>
        <path class="cls-2" d="M65.35,197.53a5.76,5.76,0,1,1-8.15,0A5.76,5.76,0,0,1,65.35,197.53Z"/>
        <g>
          <polygon class="cls-4" points="66.7 179.89 81.63 181.25 80.27 166.32 66.7 179.89"/>
          <polygon class="cls-4" points="96.55 182.61 81.63 181.25 82.98 196.18 96.55 182.61"/>
        </g>
        <path class="cls-2" d="M92.48,170.39a5.76,5.76,0,1,1-8.14,0A5.76,5.76,0,0,1,92.48,170.39Z"/>
        <g>
          <polygon class="cls-4" points="80.27 166.32 95.19 167.68 93.83 152.76 80.27 166.32"/>
          <polygon class="cls-4" points="110.12 169.04 95.19 167.68 96.55 182.61 110.12 169.04"/>
        </g>
        <path class="cls-2" d="M106.05,156.83a5.76,5.76,0,1,1-8.14,0A5.75,5.75,0,0,1,106.05,156.83Z"/>
        <g>
          <polygon class="cls-4" points="93.83 152.76 108.76 154.11 107.4 139.19 93.83 152.76"/>
          <polygon class="cls-4" points="123.69 155.47 108.76 154.11 110.12 169.04 123.69 155.47"/>
        </g>
        <path class="cls-2" d="M119.62,143.26a5.76,5.76,0,1,1-8.15,0A5.75,5.75,0,0,1,119.62,143.26Z"/>
        <g>
          <polygon class="cls-4" points="107.4 139.19 122.33 140.55 120.97 125.62 107.4 139.19"/>
          <polygon class="cls-4" points="137.26 141.91 122.33 140.55 123.69 155.47 137.26 141.91"/>
        </g>
        <path class="cls-2" d="M133.19,129.69a5.76,5.76,0,1,1-8.15,0A5.76,5.76,0,0,1,133.19,129.69Z"/>
        <g>
          <polygon class="cls-4" points="120.97 125.62 135.9 126.98 134.54 112.05 120.97 125.62"/>
          <polygon class="cls-4" points="150.82 128.34 135.9 126.98 137.26 141.91 150.82 128.34"/>
        </g>
        <path class="cls-2" d="M146.75,116.12a5.76,5.76,0,1,1-8.14,0A5.76,5.76,0,0,1,146.75,116.12Z"/>
        <g>
          <polygon class="cls-4" points="134.54 112.05 149.47 113.41 148.11 98.48 134.54 112.05"/>
          <polygon class="cls-4" points="164.39 114.77 149.47 113.41 150.82 128.34 164.39 114.77"/>
        </g>
        <path class="cls-2" d="M160.32,102.55a5.76,5.76,0,1,1-8.14,0A5.76,5.76,0,0,1,160.32,102.55Z"/>
        <g>
          <polygon class="cls-4" points="148.11 98.48 163.03 99.84 161.68 84.92 148.11 98.48"/>
          <polygon class="cls-4" points="177.96 101.2 163.03 99.84 164.39 114.77 177.96 101.2"/>
        </g>
        <path class="cls-2" d="M173.89,89a5.76,5.76,0,1,1-8.15,0A5.75,5.75,0,0,1,173.89,89Z"/>
        <g>
          <polygon class="cls-4" points="161.68 84.92 176.6 86.28 175.24 71.35 161.68 84.92"/>
          <polygon class="cls-4" points="191.53 87.63 176.6 86.28 177.96 101.2 191.53 87.63"/>
        </g>
        <path class="cls-2" d="M187.46,75.42a5.76,5.76,0,1,1-8.15,0A5.75,5.75,0,0,1,187.46,75.42Z"/>
        <g>
          <polygon class="cls-4" points="175.24 71.35 190.17 72.71 188.81 57.78 175.24 71.35"/>
          <polygon class="cls-4" points="205.1 74.06 190.17 72.71 191.53 87.63 205.1 74.06"/>
        </g>
        <path class="cls-2" d="M201,61.85a5.76,5.76,0,1,1-8.15,0A5.76,5.76,0,0,1,201,61.85Z"/>
        <g>
          <polygon class="cls-4" points="188.81 57.78 203.74 59.14 202.38 44.21 188.81 57.78"/>
          <polygon class="cls-4" points="218.66 60.5 203.74 59.14 205.1 74.06 218.66 60.5"/>
        </g>
        <rect class="cls-4" x="27.08" y="176.03" width="16.19" height="3.25" transform="translate(-115.31 76.91) rotate(-45)"/>
        <rect class="cls-4" x="23.1" y="172.05" width="16.19" height="3.25" transform="translate(-113.67 72.93) rotate(-45)"/>
        <rect class="cls-4" x="19.12" y="168.07" width="16.19" height="3.25" transform="translate(-112.02 68.95) rotate(-45)"/>
        <rect class="cls-4" x="32.51" y="163.49" width="14.5" height="3.25" transform="translate(128.4 20.24) rotate(45)"/>
        <rect class="cls-4" x="36.49" y="159.51" width="14.5" height="3.25" transform="translate(126.75 16.26) rotate(45)"/>
        <rect class="cls-4" x="40.47" y="155.53" width="14.5" height="3.25" transform="translate(125.1 12.29) rotate(45)"/>
        <rect class="cls-4" x="52.16" y="150.95" width="16.19" height="3.25" transform="translate(-90.24 87.29) rotate(-45)"/>
        <rect class="cls-4" x="48.18" y="146.97" width="16.19" height="3.25" transform="translate(-88.59 83.32) rotate(-45)"/>
        <rect class="cls-4" x="44.2" y="142.99" width="16.19" height="3.25" transform="translate(-86.94 79.34) rotate(-45)"/>
        <rect class="cls-4" x="57.59" y="138.41" width="14.5" height="3.25" transform="translate(118.01 -4.83) rotate(45)"/>
        <rect class="cls-4" x="61.57" y="134.43" width="14.5" height="3.25" transform="translate(116.36 -8.81) rotate(45)"/>
        <rect class="cls-4" x="65.55" y="130.45" width="14.5" height="3.25" transform="translate(114.71 -12.79) rotate(45)"/>
        <rect class="cls-4" x="77.24" y="125.87" width="16.19" height="3.25" transform="translate(-65.16 97.68) rotate(-45)"/>
        <rect class="cls-4" x="73.26" y="121.89" width="16.19" height="3.25" transform="translate(-63.51 93.7) rotate(-45)"/>
        <rect class="cls-4" x="69.28" y="117.92" width="16.19" height="3.25" transform="translate(-61.86 89.72) rotate(-45)"/>
        <rect class="cls-4" x="82.67" y="113.33" width="14.5" height="3.25" transform="translate(107.62 -29.91) rotate(45)"/>
        <rect class="cls-4" x="86.65" y="109.35" width="14.5" height="3.25" transform="translate(105.97 -33.89) rotate(45)"/>
        <rect class="cls-4" x="90.62" y="105.37" width="14.5" height="3.25" transform="translate(104.33 -37.87) rotate(45)"/>
        <rect class="cls-4" x="102.31" y="100.8" width="16.19" height="3.25" transform="translate(-40.08 108.07) rotate(-45)"/>
        <rect class="cls-4" x="98.33" y="96.82" width="16.19" height="3.25" transform="translate(-38.44 104.09) rotate(-45)"/>
        <rect class="cls-4" x="94.35" y="92.84" width="16.19" height="3.25" transform="translate(-36.79 100.11) rotate(-45)"/>
        <rect class="cls-4" x="107.74" y="88.25" width="14.5" height="3.25" transform="translate(97.23 -54.99) rotate(45)"/>
        <rect class="cls-4" x="111.72" y="84.28" width="14.5" height="3.25" transform="translate(95.59 -58.97) rotate(45)"/>
        <rect class="cls-4" x="115.7" y="80.3" width="14.5" height="3.25" transform="translate(93.94 -62.95) rotate(45)"/>
        <rect class="cls-4" x="127.39" y="75.72" width="16.19" height="3.25" transform="translate(-15.01 118.46) rotate(-45)"/>
        <rect class="cls-4" x="123.41" y="71.74" width="16.19" height="3.25" transform="translate(-13.36 114.48) rotate(-45)"/>
        <rect class="cls-4" x="119.43" y="67.76" width="16.19" height="3.25" transform="translate(-11.71 110.5) rotate(-45)"/>
        <rect class="cls-4" x="132.82" y="63.18" width="14.5" height="3.25" transform="translate(86.85 -80.07) rotate(45)"/>
        <rect class="cls-4" x="136.8" y="59.2" width="14.5" height="3.25" transform="translate(85.2 -84.04) rotate(45)"/>
        <rect class="cls-4" x="140.78" y="55.22" width="14.5" height="3.25" transform="translate(83.55 -88.02) rotate(45)"/>
        <rect class="cls-4" x="152.47" y="50.64" width="16.19" height="3.25" transform="translate(10.07 128.84) rotate(-45)"/>
        <rect class="cls-4" x="148.49" y="46.66" width="16.19" height="3.25" transform="translate(11.72 124.87) rotate(-45)"/>
        <rect class="cls-4" x="144.51" y="42.68" width="16.19" height="3.25" transform="translate(13.37 120.89) rotate(-45)"/>
        <rect class="cls-4" x="157.9" y="38.1" width="14.5" height="3.25" transform="translate(76.46 -105.14) rotate(45)"/>
        <rect class="cls-4" x="161.88" y="34.12" width="14.5" height="3.25" transform="translate(74.81 -109.12) rotate(45)"/>
        <rect class="cls-4" x="165.86" y="30.14" width="14.5" height="3.25" transform="translate(73.16 -113.1) rotate(45)"/>
        <rect class="cls-1" x="-20.53" y="92.17" width="227.84" height="2.67" transform="translate(-38.76 93.42) rotate(-45)"/>
      </g>
    </g>
  </g>
</svg>
