<svg xmlns="http://www.w3.org/2000/svg" viewBox="0 0 421.4 198.65">
  <defs>
    <style>
      .cls-1 {
        fill: #013278;
      }
    </style>
  </defs>
  <g id="Layer_2" data-name="Layer 2">
    <g id="Graphic_elements" data-name="Graphic elements">
      <g>
        <path class="cls-1" d="M252.79,103.48c2.84-4.48,5.64-9.2,8.36-13.76C271.7,72,282.6,53.61,299.6,42.05c12.08-8.21,28.41-11.34,40.63-7.79a27.09,27.09,0,0,1,18,15.88c2.41,5.59,2.54,11.15.36,16.08a18.81,18.81,0,0,1-4.36,6.08c2-7.07-3.16-14.54-9.58-18.47-10.26-6.28-23.89-5.62-33.92,1.63-5.8,4.2-12,13.3-12.34,21.25a13,13,0,0,0,3.39,9.65c-4.65,1.09-8.74,3.55-12.52,6.15-22.05,15.16-39.64,36.87-55.15,56-17.29,21.33-39.58,37.6-62.78,45.81a97.71,97.71,0,0,1-12,3.39,99.31,99.31,0,0,0,19.51-9.4C212.07,167.67,234.65,132.08,252.79,103.48Z"/>
        <path class="cls-1" d="M69.42,168q-2.27-2.81-4.51-5.72c-6.23-8-12.66-16.2-20.79-22.52-12.34-9.59-28.31-10.89-44.12-4C7.36,129.24,17.56,124,28.09,124.2c8.82.16,18.87,3.35,27.57,8.74,7.16,4.44,12.15,10.68,17.44,17.29a126.7,126.7,0,0,0,10.05,11.56c6.86,6.74,14.16,11.48,21.68,14.1a67,67,0,0,0,22.08,3.87c16.28,0,32.22-6.41,47.6-19.18,22.66-18.82,37-45.64,43.49-60q1.84-4.06,3.68-8.13c2-4.4,4-8.81,6-13.19,5.85-12.68,13-27.45,21.76-40.93a12.08,12.08,0,0,1,1.33-1.57,18,18,0,0,0,1.74-2.08c6.07-9,13.77-14.44,22.69-20.75l.31-.22C284.8,7.19,294,1.21,304.35.21,313-.64,321.42,1.26,330.3,3.27a129.45,129.45,0,0,0,17.87,3.18c4.62.38,8.29-1.38,11.83-3.07A25.1,25.1,0,0,1,367.16.77,50,50,0,0,1,382,.91c11.09,1.71,20.23,6.63,25.76,13.85,6.08,7.94,5.88,16.91,5.65,26.4-.13,5.55-.26,11.28.88,17a33.9,33.9,0,0,0,3.64,9c1.52,2.92,2.95,5.68,3.33,8.77a30,30,0,0,1-3.29,16.76,31.35,31.35,0,0,1-21.3,16.12c-4.77,1-9.59.17-14.69-.67a58.84,58.84,0,0,0-12.28-1.13c-6.29.31-10.3,3.66-14.18,6.9a29.46,29.46,0,0,1-7.78,5.23c-5.71,2.29-14.16,1.72-22.6-1.51-5.47-2.1-5.67-5.49-6-11.11-.08-1.35-.16-2.74-.33-4.2-1-8.4-5.38-12-10.44-16.15-.83-.69-1.69-1.39-2.57-2.15a8.39,8.39,0,0,1-2.94-7.17c.27-6.34,5.66-14.37,10.54-17.9a26.53,26.53,0,0,1,29.07-1.44c4.34,2.66,9.52,8.83,7.44,14.25-1.71,4.45-7.6,7.12-12.36,5.61a2.19,2.19,0,1,0-1.32,4.17,14.48,14.48,0,0,0,8.95-.19,2.17,2.17,0,0,0,1.88.22c7.32-2.52,12.87-7.36,15.63-13.63,2.65-6,2.52-12.95-.35-19.59a31.65,31.65,0,0,0-20.84-18.34c-13.41-3.89-31.21-.53-44.31,8.38-17.8,12.1-29,30.88-39.75,49-2.7,4.54-5.49,9.23-8.3,13.66-17.9,28.22-40.18,63.35-72.55,83.48-18.27,11.37-38.67,15.94-59.17,13.31q-3.78-.77-7.5-1.83C94.49,191.68,80.88,182.23,69.42,168Z"/>
        <path class="cls-1" d="M138.29,41.22a22.56,22.56,0,0,0,8.89-5.79,22.25,22.25,0,0,0,4.2-7.23c1.93-4.65,3.6-8.67,13.74-10.45,17.32-3.05,34.06,11.51,38.27,26.48,1.5,5.34,5,9.18,8.45,12.89,2.66,2.89,5.18,5.62,6.78,9,3.85,8.12,3.73,14.1-.43,22.07a2.18,2.18,0,0,0-.13,1.71l-.37.81q-1.83,4.06-3.67,8.12c-6.36,14-20.31,40.13-42.3,58.39-21,17.45-43,22.34-65.45,14.55-6.91-2.4-13.66-6.81-20.06-13.1a122.83,122.83,0,0,1-9.69-11.17c-5.29-6.6-10.75-13.43-18.55-18.27A62.67,62.67,0,0,0,31.52,120a54.29,54.29,0,0,1,26.09-1.47,2.15,2.15,0,0,0,.5.19c16.69,4,22.16,10,33,22,2.55,2.81,5.45,6,8.82,9.52,9.56,10,19.81,15,31.32,15.22h1a44.87,44.87,0,0,0,29.16-11.1c16-13.76,24.9-37.4,22.57-60.22a2,2,0,0,0-.11-.49,23.58,23.58,0,0,0,7.35-14,15.89,15.89,0,0,0-4.5-13.48c-5.59-5.66-16.72-7.36-24.81-3.79-5.82,2.58-9,7.54-8.65,13.63a2.18,2.18,0,1,0,4.36-.23c-.28-5.43,3.14-8.1,6.06-9.39,6.34-2.81,15.65-1.47,19.92,2.85a11.7,11.7,0,0,1,3.28,9.9,19.62,19.62,0,0,1-8.83,13.55c-2.94,1.83-5.88,1.79-9.27,1.74a25.19,25.19,0,0,0-8.87,1,41.34,41.34,0,0,0-7,3.3c-3.59,2-6.66,3.72-11.52,3.34-5.61-.44-12.56-3.76-15-9.24-1.32-3-.22-6.15.95-9.53,1.29-3.74,2.76-8,.37-12-3.75-6.26-4.82-14-2.48-17.93C130.6,44.4,134.34,42.86,138.29,41.22Z"/>
        <path class="cls-1" d="M166.42,98.83c.75,0,1.52,0,2.3,0,3.4,0,7.22.07,11.06-2.09,1.4,20.49-7,42.09-21.22,54.33a40.47,40.47,0,0,1-27.17,10c-10.29-.23-19.54-4.77-28.26-13.87l-.11-.12c6.87,5,14.52,8.75,24.13,8.75.56,0,1.14,0,1.72,0A38.27,38.27,0,0,0,158,140.24c8.55-11.32,11.77-27.18,8.41-41.38Z"/>
      </g>
    </g>
  </g>
</svg>
