<svg xmlns="http://www.w3.org/2000/svg" viewBox="0 0 345.13 224.21">
  <defs>
    <style>
      .cls-1 {
        fill: #013278;
      }
    </style>
  </defs>
  <g id="Layer_2" data-name="Layer 2">
    <g id="Graphic_elements" data-name="Graphic elements">
      <g>
        <path class="cls-1" d="M15.28,170.6C27.91,168.79,38.1,161.76,48,155c5.87-4.05,11.42-7.87,17.44-10.67,16.79-7.81,33.51-3.91,44.58.74.48.2.93.45,1.39.65a3.44,3.44,0,0,0,.93.49l.36.12c7.3,3.38,14,7.7,21.06,12.3,4.49,2.93,9.12,6,13.9,8.68,36.21,20.65,72.53,12,91-4.81,20.26-18.47,28.15-51.08,18.35-75.86-.05-.13-.12-.24-.18-.36,2.44-8.56,1.09-18.13-2.51-26C245.93,42,227.56,31.93,208.57,35.17c-12.5,2.12-19.58,15.08-18.11,25.38,1.26,8.86,8.42,13.85,18.23,12.73a3.39,3.39,0,1,0-.78-6.73c-7.94.92-10.22-3.28-10.74-6.95-1-7.2,4.12-16.32,12.54-17.75,15.91-2.7,31.34,5.81,38.38,21.21C253.45,74.81,253,90,239.78,97.43c-6.68,3.76-13,3-20.31,2.07-1.2-.15-2.43-.3-3.67-.43-5.26-.56-8.75,2.22-11.58,4.46a28.56,28.56,0,0,1-3.22,2.31c-9.25,5.3-21,4.47-30.6-2.18-11.57-8-18.2-25.08-15.44-39.77,1.21-6.41,5.38-17.68,19.72-21.07a3.39,3.39,0,1,0-1.56-6.6,31.64,31.64,0,0,0-23.35,20.93c-4.55-15.82-.44-31,11.83-42.6,16-15.12,41-19,59.47-9.13,5,2.66,9.5,1.06,13.14-.23a35.41,35.41,0,0,1,3.39-1.07,54.7,54.7,0,0,1,17.34-1C287.77,6,313.75,37.11,318.61,65.49,306.35,63.71,290.7,67.08,285,79.64c-3,6.55-2.48,13.84,1.43,20.54,4.64,7.92,13.24,13.5,21.93,14.23a18,18,0,0,0,10.92-2.74c.3,10.86-1.19,36.9-19.68,58.77-19.26,22.77-51.3,35-95.23,36.32a3.39,3.39,0,0,0,.1,6.78h.11c46-1.39,79.72-14.45,100.26-38.8,25.86-30.65,21-67.62,20.82-69.17a4,4,0,0,0-.15-.62,15.15,15.15,0,0,0,1.32-9.6,3.39,3.39,0,1,0-6.67,1.22A8.46,8.46,0,0,1,318,104a11.47,11.47,0,0,1-9.11,3.66c-6.46-.55-13.14-4.93-16.64-10.91-2.77-4.73-3.17-9.81-1.12-14.29,5.09-11.15,22.36-12.63,32.49-8.77,16.35,6.21,23.12,31.11,21.18,51.4-3,32-23.31,61.17-55.61,80.15C253.92,226,211.93,230,179.63,215.84c-11-4.81-21.1-11.74-30.9-18.44-8.68-5.93-17.65-12.07-27.34-16.87C104.11,172,84.27,169.94,67,175c-4.49,1.3-8.83,3-13,4.56-13,5-24.3,9.25-37.47,3.44A43.46,43.46,0,0,1,0,169.2,32.11,32.11,0,0,0,15.28,170.6Z"/>
        <path class="cls-1" d="M243.11,103.33A28.91,28.91,0,0,0,252.52,95c5.58,21.36-1.78,47.2-18.5,62.43s-49.78,22.91-83,3.94c-3.29-1.88-6.55-3.93-9.75-6,9.59,2.65,19.3,4.57,29.11,4.57A66.45,66.45,0,0,0,195,155.4c14.62-5.76,26.22-15.85,31-27A30.51,30.51,0,0,0,227.24,107,29.34,29.34,0,0,0,243.11,103.33Z"/>
      </g>
    </g>
  </g>
</svg>
